<svg width="181" height="181" viewBox="0 0 181 181" fill="none" xmlns="http://www.w3.org/2000/svg">
<g clip-path="url(#clip0_128_1196)">
<path d="M180.555 90.9023C180.555 140.608 140.26 180.902 90.5547 180.902C40.849 180.902 0.554688 140.608 0.554688 90.9023C0.554688 41.1967 40.849 0.902344 90.5547 0.902344C140.26 0.902344 180.555 41.1967 180.555 90.9023Z" fill="#BC157D"/>
<path d="M116.937 123.638L63.9968 142.649C61.2557 143.633 58.2358 142.209 57.2514 139.468L16.8547 26.9696C15.8704 24.2284 17.2945 21.2085 20.0357 20.2241L72.9761 1.21411C75.7172 0.229733 78.7371 1.65391 79.7215 4.39505L120.118 116.893C121.102 119.634 119.678 122.654 116.937 123.638Z" fill="#FFF04A"/>
<path d="M116.935 123.638L73.5906 139.203C70.8494 140.187 67.8295 138.763 66.8451 136.022L26.4485 23.5239C25.4641 20.7828 26.8883 17.7629 29.6294 16.7785L72.9743 1.21411C75.7154 0.229733 78.7353 1.65391 79.7197 4.39505L120.116 116.893C121.1 119.634 119.677 122.654 116.935 123.638Z" fill="#FFF36C"/>
<path d="M107.086 115.968L66.7186 130.463C66.5013 130.541 66.2708 130.576 66.0402 130.565C65.8096 130.554 65.5835 130.497 65.3747 130.399C65.1659 130.3 64.9785 130.162 64.8233 129.991C64.6681 129.82 64.548 129.62 64.47 129.403L28.8261 30.14C28.7481 29.9227 28.7136 29.6922 28.7247 29.4616C28.7357 29.231 28.7921 29.0049 28.8906 28.796C28.989 28.5872 29.1276 28.3999 29.2985 28.2447C29.4694 28.0894 29.6692 27.9694 29.8864 27.8914L70.2532 13.3964C70.4705 13.3184 70.701 13.2839 70.9316 13.295C71.1622 13.306 71.3883 13.3624 71.5971 13.4609C71.8059 13.5593 71.9933 13.698 72.1485 13.8688C72.3037 14.0397 72.4238 14.2395 72.5018 14.4568L108.146 113.72C108.303 114.158 108.28 114.642 108.081 115.063C107.883 115.485 107.524 115.81 107.086 115.968Z" fill="#FFB655"/>
<path d="M58.9791 45.4608C56.2379 46.4452 53.218 45.021 52.2336 42.2798C51.2493 39.5387 52.6734 36.5188 55.4146 35.5344C58.1557 34.55 61.1756 35.9742 62.16 38.7154C63.144 41.4565 61.7198 44.4764 58.9791 45.4608Z" fill="#FF9100"/>
<path d="M102.25 166.969L94.0786 175.141C92.0191 177.2 88.6803 177.2 86.6209 175.141L2.09928 90.6193C0.0398242 88.5599 0.0398242 85.2211 2.09928 83.1616L10.271 74.9899C12.3304 72.9304 15.6692 72.9304 17.7287 74.9899L102.25 159.511C104.31 161.571 104.31 164.91 102.25 166.969Z" fill="#FFF36C"/>
<path d="M133.855 135.364L101.29 167.929C99.2301 169.988 95.8913 169.988 93.8318 167.929L9.31021 83.4077C7.25076 81.3483 7.25076 78.0095 9.31021 75.95L41.8758 43.3844C43.9353 41.325 47.274 41.325 49.3335 43.3844L133.855 127.906C135.915 129.965 135.915 133.304 133.855 135.364Z" fill="#FFF68E"/>
<path d="M121.672 132.629L91.344 162.957C91.0144 163.287 90.5673 163.472 90.1011 163.472C89.6349 163.472 89.1878 163.287 88.8581 162.957L14.2805 88.3798C13.9508 88.0501 13.7656 87.603 13.7656 87.1368C13.7656 86.6706 13.9508 86.2235 14.2805 85.8939L44.6087 55.5656C44.9384 55.236 45.3855 55.0508 45.8517 55.0508C46.3178 55.0508 46.765 55.236 47.0946 55.5656L121.672 130.143C122.002 130.473 122.187 130.92 122.187 131.386C122.187 131.852 122.002 132.299 121.672 132.629Z" fill="#FFCD71"/>
<path d="M79.1621 120.448C72.9841 126.626 62.967 126.626 56.7887 120.448C50.6103 114.27 50.6103 104.253 56.7887 98.0742C62.967 91.8962 72.9838 91.8962 79.1621 98.0742C85.3405 104.253 85.3405 114.27 79.1621 120.448ZM40.6305 81.9157C38.5711 83.9751 38.5711 87.3139 40.6305 89.3734C42.69 91.4328 46.0288 91.4328 48.0882 89.3734C50.1477 87.3139 50.1477 83.9751 48.0882 81.9157C46.0288 79.8562 42.69 79.8562 40.6305 81.9157Z" fill="#FF9F22"/>
<path d="M104.531 121.338L89.5361 118.675C86.6684 118.166 84.7566 115.429 85.2657 112.561L104.319 5.25485C104.828 2.38715 107.565 0.475356 110.433 0.984418L125.428 3.6468C128.296 4.15586 130.207 6.89348 129.698 9.76082L110.645 117.067C110.136 119.935 107.399 121.847 104.531 121.338Z" fill="#ABA6D5"/>
<path d="M155.304 130.351L101.974 120.882C99.1059 120.373 97.1941 117.635 97.7032 114.768L116.756 7.46188C117.265 4.59418 120.003 2.68239 122.87 3.19145L176.201 12.6604C179.068 13.1695 180.98 15.9071 180.471 18.7745L161.418 126.08C160.909 128.948 158.172 130.86 155.304 130.351Z" fill="#C1BDE0"/>
<path d="M164.022 71.2009C160.967 88.4064 144.543 99.8779 127.337 96.8228C110.132 93.7677 98.6602 77.3434 101.715 60.1379C104.77 42.9325 121.195 31.461 138.4 34.5161C155.606 37.5711 167.077 53.9954 164.022 71.2009Z" fill="#958FCA"/>
<path d="M150.715 78.7614C146.63 81.9262 140.824 81.5359 137.199 77.853L134.197 74.8032L134.797 78.8806C134.837 79.1566 135.006 79.3974 135.251 79.5306L139.914 82.0629C140.662 82.4693 140.463 83.5947 139.62 83.7188L138.177 83.9311L124.924 81.5781L123.642 80.882C122.894 80.4756 123.093 79.3503 123.936 79.2265L130.654 74.5346L127.339 76.1029C122.668 78.3128 117.082 76.6805 114.336 72.3025C113.47 70.9212 112.947 69.3523 112.812 67.7273C112.677 66.1023 112.933 64.4687 113.56 62.9632C119.404 47.7314 137.921 45.1425 137.921 45.1425C137.921 45.1425 154.416 53.9481 154.659 70.2606C154.729 71.8896 154.407 73.5117 153.721 74.9908C153.035 76.4699 152.004 77.7629 150.715 78.7614ZM124.944 20.8408C124.268 21.3643 123.424 21.6218 122.571 21.5645C121.719 21.5071 120.917 21.1389 120.317 20.5296L120.019 20.227L120.248 21.7868C120.263 21.8877 120.301 21.9837 120.36 22.0673C120.418 22.1509 120.495 22.2198 120.585 22.2685L124.039 24.1444C124.594 24.4454 124.446 25.2793 123.822 25.371L122.752 25.5282L112.934 23.7851L111.984 23.2694C111.43 22.9684 111.578 22.1345 112.202 22.0428L116.091 21.4708C116.192 21.456 116.288 21.4179 116.372 21.3595C116.456 21.3011 116.524 21.224 116.573 21.1343L117.325 19.7488L116.941 19.9306C116.303 20.2324 115.589 20.3338 114.892 20.2214C114.195 20.1091 113.549 19.7883 113.038 19.3012C112.528 18.8142 112.176 18.1839 112.031 17.4933C111.886 16.8027 111.953 16.0842 112.224 15.4327C114.225 10.2183 120.564 9.33203 120.564 9.33203C120.564 9.33203 126.21 12.3467 126.294 17.9305C126.318 18.4882 126.208 19.0436 125.973 19.5499C125.738 20.0563 125.385 20.499 124.944 20.8408Z" fill="#51489A"/>
<path d="M151.168 58.0318C153.161 61.4602 154.588 65.5471 154.659 70.2602C154.729 71.8893 154.407 73.5115 153.721 74.9907C153.035 76.4699 152.004 77.763 150.715 78.7617C146.63 81.9264 140.823 81.5362 137.198 77.8532L132.89 73.4759L127.339 76.1025C124.29 77.5449 120.851 77.3501 118.066 75.8237C118.856 69.5989 122.186 63.706 127.754 59.817C131.137 57.446 135.096 56.0292 139.216 55.7151C143.336 55.401 147.464 56.2012 151.168 58.0318Z" fill="#5F55AF"/>
<path d="M91.4959 155.134L78.1998 158.789C75.3915 159.56 72.4894 157.91 71.7173 155.102L42.8344 50.0143C42.0627 47.206 43.7133 44.3039 46.5216 43.5318L59.8176 39.8773C62.6259 39.1057 65.5281 40.7562 66.3001 43.5645L95.1831 148.652C95.9551 151.46 94.3042 154.363 91.4959 155.134Z" fill="#FFC7E7"/>
<path d="M142.609 141.088L90.192 155.494C87.3837 156.266 84.4816 154.616 83.7095 151.807L54.8266 46.7196C54.0549 43.9113 55.7055 41.0092 58.5137 40.2371L110.931 25.8305C113.739 25.0588 116.641 26.7094 117.413 29.5177L146.296 134.605C147.068 137.414 145.418 140.316 142.609 141.088Z" fill="#FFF5F5"/>
<path d="M125.072 83.9233C129.703 100.773 119.798 118.187 102.948 122.818C86.0985 127.449 68.6845 117.544 64.0534 100.694C59.4223 83.8446 69.3275 66.4306 86.1772 61.7995C103.027 57.1684 120.441 67.0736 125.072 83.9233Z" fill="#FFAEE0"/>
<path d="M115.454 84.3316C116.719 100.597 101.108 110.889 101.108 110.889C101.108 110.889 82.4306 110.021 75.205 95.3943C74.4419 93.9532 74.0356 92.3501 74.02 90.7195C74.0044 89.089 74.38 87.4784 75.1153 86.023C77.4451 81.4105 82.8564 79.2691 87.7118 81.0382L93.4823 83.1405L97.3678 78.3843C100.637 74.3824 106.383 73.4575 110.742 76.2313C112.118 77.1066 113.264 78.2989 114.084 79.7083C114.903 81.1177 115.374 82.7031 115.454 84.3316Z" fill="#FF2EA6"/>
<path d="M89.6284 97.2158C83.725 93.8577 79.8652 88.2977 78.5039 82.1724C81.1354 80.3949 84.5416 79.8834 87.711 81.0383L93.4815 83.1406L97.367 78.3844C100.636 74.3822 106.382 73.4576 110.741 76.2314C112.117 77.1067 113.263 78.299 114.083 79.7085C114.903 81.118 115.373 82.7035 115.454 84.3321C115.819 89.0318 114.776 93.2326 113.107 96.8308C109.588 98.9956 105.552 100.174 101.421 100.241C97.2896 100.309 93.2165 99.2641 89.6284 97.2158Z" fill="#FF50B5"/>
<path d="M62.3593 58.0114C62.3593 58.0114 55.9654 57.7143 53.4918 52.7074C53.1615 52.0836 53.0281 51.3744 53.1089 50.6732C53.1898 49.9721 53.4813 49.3119 53.945 48.7797C54.4086 48.2476 55.0226 47.8684 55.7061 47.6922C56.3896 47.5161 57.1104 47.5512 57.7735 47.7929L59.7489 48.5125L61.0789 46.8844C61.5254 46.3378 62.127 45.9394 62.8044 45.7415C63.4819 45.5437 64.2034 45.5558 64.8738 45.7763C65.5443 45.9967 66.1322 46.4152 66.5601 46.9764C66.9879 47.5377 67.2357 48.2155 67.2706 48.9203C67.7034 54.488 62.3593 58.0114 62.3593 58.0114Z" fill="#FF2EA6"/>
<path d="M173.832 136.344C173.832 157.896 156.361 175.367 134.809 175.367C113.256 175.367 95.7852 157.896 95.7852 136.344C95.7852 114.792 113.256 97.3203 134.809 97.3203C156.361 97.3203 173.832 114.792 173.832 136.344Z" fill="#FFCD71"/>
<path d="M134.835 136.343L171.804 148.792C170.918 151.413 169.757 153.932 168.341 156.308C166.926 158.686 165.265 160.907 163.383 162.935L134.823 136.363L142.525 174.597C137.15 175.682 131.538 175.643 126.067 174.385L134.8 136.363L105.532 162.156C101.819 157.946 99.1105 153.03 97.5039 147.787L134.788 136.342L97.8186 123.893C98.7045 121.272 99.8656 118.752 101.282 116.376C102.697 113.999 104.358 111.777 106.24 109.75L134.8 136.322L127.098 98.0881C132.473 97.0028 138.085 97.0411 143.556 98.3001L134.823 136.322L164.091 110.528C167.804 114.738 170.513 119.654 172.119 124.897L134.835 136.343Z" fill="#FFB655"/>
<path d="M159.77 136.344C159.77 150.129 148.594 161.305 134.809 161.305C121.023 161.305 109.848 150.129 109.848 136.344C109.848 122.558 121.023 111.383 134.809 111.383C148.594 111.383 159.77 122.558 159.77 136.344Z" fill="#FF9F22"/>
<path d="M133.274 151.173L130.207 141.973C130.127 141.735 129.993 141.518 129.816 141.34C129.638 141.162 129.421 141.028 129.182 140.949L119.983 137.882C118.506 137.39 118.506 135.301 119.983 134.809L129.182 131.742C129.421 131.662 129.638 131.528 129.816 131.351C129.993 131.173 130.127 130.956 130.207 130.718L133.274 121.518C133.766 120.041 135.855 120.041 136.347 121.518L139.414 130.718C139.493 130.956 139.627 131.173 139.805 131.351C139.983 131.528 140.199 131.662 140.438 131.742L149.638 134.809C151.115 135.301 151.115 137.39 149.638 137.882L140.438 140.949C140.199 141.028 139.983 141.162 139.805 141.34C139.627 141.518 139.493 141.735 139.414 141.973L136.347 151.173C135.854 152.65 133.766 152.65 133.274 151.173Z" fill="#FFF5F5"/>
<path d="M134.809 97.3203C113.257 97.3203 95.7852 114.792 95.7852 136.344C95.7852 157.896 113.257 175.367 134.809 175.367C156.361 175.367 173.832 157.896 173.832 136.344C173.832 114.792 156.361 97.3203 134.809 97.3203ZM134.809 170.094C116.199 170.094 101.059 154.954 101.059 136.344C101.059 117.734 116.199 102.594 134.809 102.594C153.419 102.594 168.559 117.734 168.559 136.344C168.559 154.954 153.419 170.094 134.809 170.094Z" fill="#FF9100"/>
<path d="M26.7687 108.801L29.0022 112.885C29.0683 113.006 29.1678 113.105 29.2891 113.172L33.3728 115.405C33.8731 115.679 33.8731 116.398 33.3728 116.671L29.2891 118.905C29.168 118.971 29.0684 119.07 29.0022 119.191L26.7687 123.275C26.4952 123.775 25.7763 123.775 25.5027 123.275L23.2693 119.191C23.203 119.07 23.1035 118.971 22.9824 118.905L18.8986 116.671C18.3984 116.398 18.3984 115.679 18.8986 115.405L22.9824 113.172C23.1033 113.106 23.2028 113.006 23.2693 112.885L25.5027 108.801C25.7766 108.301 26.4952 108.301 26.7687 108.801ZM155.301 52.551L157.535 56.6347C157.601 56.7557 157.7 56.8552 157.821 56.9216L161.905 59.1551C162.405 59.4286 162.405 60.1475 161.905 60.4211L157.821 62.6545C157.7 62.7208 157.601 62.8203 157.535 62.9414L155.301 67.0252C155.028 67.5254 154.309 67.5254 154.035 67.0252L151.802 62.9414C151.735 62.8203 151.636 62.7208 151.515 62.6545L147.431 60.4211C146.931 60.1475 146.931 59.4286 147.431 59.1551L151.515 56.9216C151.636 56.8555 151.735 56.756 151.802 56.6347L154.035 52.551C154.309 52.0507 155.028 52.0507 155.301 52.551Z" fill="#FFF5F5"/>
<path d="M27.8094 160.784L25.4546 153.72C25.3936 153.537 25.2907 153.371 25.1542 153.234C25.0177 153.098 24.8513 152.995 24.6682 152.934L17.6042 150.579C16.4705 150.201 16.4705 148.597 17.6042 148.22L24.6682 145.865C24.8513 145.804 25.0177 145.701 25.1542 145.564C25.2907 145.428 25.3936 145.261 25.4546 145.078L27.8094 138.014C28.1873 136.881 29.7912 136.881 30.1691 138.014L32.5239 145.078C32.5849 145.261 32.6878 145.428 32.8243 145.564C32.9608 145.701 33.1272 145.804 33.3103 145.865L40.3742 148.22C41.508 148.597 41.508 150.201 40.3742 150.579L33.3103 152.934C33.1272 152.995 32.9608 153.098 32.8243 153.234C32.6878 153.371 32.5849 153.537 32.5239 153.72L30.1691 160.784C29.7912 161.918 28.1873 161.918 27.8094 160.784Z" fill="#FF72C3"/>
</g>
<defs>
<clipPath id="clip0_128_1196">
<rect width="180" height="180" fill="white" transform="translate(0.554688 0.902344)"/>
</clipPath>
</defs>
</svg>
