<svg width="181" height="180" viewBox="0 0 181 180" fill="none" xmlns="http://www.w3.org/2000/svg">
<g clip-path="url(#clip0_128_1116)">
<path d="M90.5 180.006C140.206 180.006 180.5 139.711 180.5 90.0059C180.5 40.3002 140.206 0.00585938 90.5 0.00585938C40.7944 0.00585938 0.5 40.3002 0.5 90.0059C0.5 139.711 40.7944 180.006 90.5 180.006Z" fill="url(#paint0_linear_128_1116)"/>
<path d="M90.5 180.006C140.206 180.006 180.5 139.711 180.5 90.0059C180.5 40.3002 140.206 0.00585938 90.5 0.00585938C40.7944 0.00585938 0.5 40.3002 0.5 90.0059C0.5 139.711 40.7944 180.006 90.5 180.006Z" fill="url(#paint1_radial_128_1116)"/>
<path d="M31.4844 91.8887C31.5392 107.764 31.9994 123.635 32.8646 139.486C34.5402 140.168 36.3349 140.571 38.1929 140.626C44.11 140.806 49.3079 137.36 51.5118 131.872C54.9564 123.275 58.5564 114.628 62.2436 105.948C63.0796 103.981 65.0185 102.712 67.1718 102.718C55.2876 99.0844 43.3798 95.4511 31.4844 91.8887Z" fill="url(#paint2_linear_128_1116)"/>
<path d="M138.487 65.9902C138.971 90.5952 138.668 115.209 137.578 139.795C139.206 140.388 140.97 140.681 142.807 140.626C150.979 140.367 158.08 133.456 158.479 125.278C159.392 105.624 159.569 85.9431 159.009 66.2761C152.168 66.1639 145.327 66.0686 138.487 65.9902Z" fill="url(#paint3_linear_128_1116)"/>
<path d="M74.2875 84.64C74.2802 90.9404 74.29 97.2407 74.3167 103.541C74.3301 106.521 76.7562 108.947 79.7294 108.954C83.3199 108.963 86.9104 108.967 90.5009 108.967V84.6348C85.0963 84.6348 79.6918 84.6365 74.2875 84.64Z" fill="url(#paint4_linear_128_1116)"/>
<path d="M85.0946 84.6354C85.0921 90.9432 85.0953 97.2516 85.1044 103.56C85.1097 106.544 87.5256 108.967 90.4991 108.967C94.0896 108.967 97.6801 108.963 101.271 108.955C104.244 108.947 106.67 106.522 106.683 103.541C106.71 97.2411 106.72 90.9407 106.712 84.6404C99.5065 84.6354 92.3005 84.6337 85.0946 84.6354Z" fill="url(#paint5_linear_128_1116)"/>
<path d="M147.799 125.543C148.613 104.616 148.733 83.6679 148.16 62.7331C106.14 62.0659 64.1115 62.1281 22.0936 62.9198C21.4134 83.7034 21.5561 104.506 22.5214 125.278C22.8199 131.608 27.1575 137.158 32.8651 139.486C36.4721 138.198 39.395 135.412 40.8814 131.654C44.254 123.119 47.8034 114.523 51.4617 105.883C52.2907 103.925 54.2271 102.663 56.3801 102.673C75.5286 102.768 94.6775 102.783 113.826 102.718C115.979 102.711 117.919 103.982 118.754 105.948C122.441 114.628 126.041 123.275 129.486 131.872C131.004 135.656 133.956 138.475 137.577 139.795C143.262 137.489 147.547 131.919 147.799 125.543Z" fill="url(#paint6_linear_128_1116)"/>
<path d="M112.07 85.5423C97.6911 85.5321 83.3125 85.5321 68.9336 85.5423C68.9448 76.2554 69.005 66.9689 69.1146 57.682C83.3726 57.5825 97.6306 57.5825 111.888 57.682C111.998 66.9689 112.058 76.2554 112.07 85.5423Z" fill="url(#paint7_linear_128_1116)"/>
<path d="M111.971 65.7687C97.6579 65.6952 83.3448 65.6952 69.0312 65.7687C69.0861 59.4775 69.1634 53.1866 69.2636 46.8954C83.4218 46.7614 97.5802 46.7614 111.738 46.8954C111.839 53.1862 111.916 59.4775 111.971 65.7687Z" fill="url(#paint8_linear_128_1116)"/>
<path d="M21.9924 66.2745C21.521 82.2253 35.0284 95.2925 51.4179 95.3899C67.8179 95.4535 81.1182 82.142 81.1748 65.7247C81.1685 49.3109 68.2883 36.0293 52.3558 36.4002C36.4339 36.7988 22.5064 50.3259 21.9924 66.2745Z" fill="url(#paint9_linear_128_1116)"/>
<path d="M21.9924 66.2745C21.521 82.2253 35.0284 95.2925 51.4179 95.3899C67.8179 95.4535 81.1182 82.142 81.1748 65.7247C81.1685 49.3109 68.2883 36.0293 52.3558 36.4002C36.4339 36.7988 22.5064 50.3259 21.9924 66.2745Z" fill="url(#paint10_linear_128_1116)"/>
<path d="M99.8242 65.725C99.8808 82.1427 113.181 95.4542 129.581 95.3902C145.971 95.2914 159.478 82.227 159.007 66.2749C158.492 50.3273 144.565 36.7995 128.643 36.4002C112.711 36.0293 99.8302 49.3106 99.8242 65.725Z" fill="url(#paint11_linear_128_1116)"/>
<path d="M109.688 65.758C109.767 76.6916 118.645 85.5556 129.593 85.5584C140.536 85.551 149.414 76.8498 149.143 66.1247C148.86 55.4006 139.702 46.4407 128.967 46.2319C118.228 46.0311 109.629 54.8258 109.688 65.758Z" fill="url(#paint12_linear_128_1116)"/>
<path d="M115.071 65.7856C115.146 73.7273 121.615 80.174 129.574 80.195C137.531 80.2123 143.944 73.8841 143.765 66.052C143.583 58.2213 136.966 51.7234 129.119 51.5937C121.27 51.4661 115.005 57.8459 115.071 65.7856Z" fill="url(#paint13_linear_128_1116)"/>
<path d="M132.23 74.8489C124.278 74.8078 117.796 68.3541 117.694 60.4187C117.677 59.2172 117.809 58.0183 118.088 56.8496C116.174 59.2866 115.038 62.3952 115.071 65.7863C115.146 73.7281 121.615 80.1747 129.574 80.1958C136.292 80.2137 141.913 75.6948 143.388 69.5825C140.815 72.8081 136.781 74.8749 132.23 74.8489Z" fill="url(#paint14_linear_128_1116)"/>
<path d="M45.7366 49.0259C45.372 60.3125 45.1629 71.6035 45.1094 82.8958C45.1045 83.8798 45.9092 84.6772 46.9038 84.6751C49.9061 84.6698 52.9088 84.6649 55.9112 84.6603C56.9064 84.6589 57.7143 83.8559 57.7178 82.8659C57.7562 71.5179 57.9073 60.1701 58.1706 48.8224C58.1935 47.8317 57.4187 47.0421 56.4392 47.0568C53.4826 47.1015 50.5259 47.1521 47.5693 47.2087C46.5902 47.2273 45.7686 48.0412 45.7366 49.0259Z" fill="url(#paint15_linear_128_1116)"/>
<path d="M70.4532 61.2691C70.424 64.2658 70.3994 67.2622 70.3797 70.2589C70.3734 71.2507 69.5634 72.0596 68.5713 72.0635C64.9766 72.0772 61.3818 72.0937 57.7871 72.1145C55.7175 70.0431 53.6492 67.9705 51.582 65.8967C53.7076 63.7919 55.8321 61.6829 57.9538 59.5718C61.5302 59.5363 65.1066 59.5064 68.6827 59.4825C69.6703 59.4751 70.4627 60.2759 70.4532 61.2691Z" fill="url(#paint16_linear_128_1116)"/>
<path d="M51.5826 65.897C49.4591 67.9998 47.3335 70.1006 45.206 72.1994C41.6112 72.2272 38.0165 72.2588 34.4218 72.2936C33.4286 72.3031 32.6376 71.5174 32.6566 70.5407C32.7132 67.5901 32.7835 64.6387 32.8675 61.688C32.8956 60.71 33.7201 59.9032 34.7076 59.8863C38.284 59.8255 41.8605 59.7699 45.4369 59.7207C47.4742 61.7717 49.5235 63.8308 51.5826 65.897Z" fill="url(#paint17_linear_128_1116)"/>
</g>
<defs>
<linearGradient id="paint0_linear_128_1116" x1="26.8605" y1="153.645" x2="154.14" y2="26.366" gradientUnits="userSpaceOnUse">
<stop stop-color="#364AFF"/>
<stop offset="1" stop-color="#FC54FF"/>
</linearGradient>
<radialGradient id="paint1_radial_128_1116" cx="0" cy="0" r="1" gradientUnits="userSpaceOnUse" gradientTransform="translate(89.4305 76.8149) scale(104.556)">
<stop offset="0.095" stop-color="#8D00DB" stop-opacity="0.66"/>
<stop offset="0.282" stop-color="#9F0DE1" stop-opacity="0.523"/>
<stop offset="0.654" stop-color="#CC30F0" stop-opacity="0.252"/>
<stop offset="1" stop-color="#FC54FF" stop-opacity="0"/>
</radialGradient>
<linearGradient id="paint2_linear_128_1116" x1="-16.7064" y1="170.901" x2="166.914" y2="-12.7198" gradientUnits="userSpaceOnUse">
<stop stop-color="#FC54FF"/>
<stop offset="0.406" stop-color="#FD9BFF"/>
<stop offset="1" stop-color="white"/>
</linearGradient>
<linearGradient id="paint3_linear_128_1116" x1="34.1727" y1="212.806" x2="238.038" y2="8.94038" gradientUnits="userSpaceOnUse">
<stop stop-color="#FC54FF"/>
<stop offset="0.406" stop-color="#FD9BFF"/>
<stop offset="1" stop-color="white"/>
</linearGradient>
<linearGradient id="paint4_linear_128_1116" x1="40.7798" y1="138.418" x2="120.009" y2="59.1887" gradientUnits="userSpaceOnUse">
<stop stop-color="#364AFF"/>
<stop offset="1" stop-color="#FC54FF"/>
</linearGradient>
<linearGradient id="paint5_linear_128_1116" x1="43.7606" y1="147.33" x2="111.62" y2="79.4703" gradientUnits="userSpaceOnUse">
<stop stop-color="#364AFF"/>
<stop offset="1" stop-color="#FC54FF"/>
</linearGradient>
<linearGradient id="paint6_linear_128_1116" x1="1.16508" y1="180.941" x2="251.603" y2="-69.4965" gradientUnits="userSpaceOnUse">
<stop stop-color="#FC54FF"/>
<stop offset="0.406" stop-color="#FD9BFF"/>
<stop offset="1" stop-color="white"/>
</linearGradient>
<linearGradient id="paint7_linear_128_1116" x1="58.9608" y1="103.243" x2="148.663" y2="13.5413" gradientUnits="userSpaceOnUse">
<stop stop-color="#FC54FF"/>
<stop offset="0.406" stop-color="#FD9BFF"/>
<stop offset="1" stop-color="white"/>
</linearGradient>
<linearGradient id="paint8_linear_128_1116" x1="64.8867" y1="82.0629" x2="142.891" y2="4.05819" gradientUnits="userSpaceOnUse">
<stop stop-color="#FC54FF"/>
<stop offset="0.406" stop-color="#FD9BFF"/>
<stop offset="1" stop-color="white"/>
</linearGradient>
<linearGradient id="paint9_linear_128_1116" x1="16.5179" y1="101.513" x2="86.5386" y2="31.4923" gradientUnits="userSpaceOnUse">
<stop stop-color="#FC54FF"/>
<stop offset="1" stop-color="#FDA0FF"/>
</linearGradient>
<linearGradient id="paint10_linear_128_1116" x1="-58.3614" y1="176.393" x2="87.202" y2="30.8293" gradientUnits="userSpaceOnUse">
<stop stop-color="#FC54FF"/>
<stop offset="0.406" stop-color="#FD9BFF"/>
<stop offset="1" stop-color="white"/>
</linearGradient>
<linearGradient id="paint11_linear_128_1116" x1="28.9313" y1="166.28" x2="156.247" y2="38.9644" gradientUnits="userSpaceOnUse">
<stop stop-color="#FC54FF"/>
<stop offset="0.406" stop-color="#FD9BFF"/>
<stop offset="1" stop-color="white"/>
</linearGradient>
<linearGradient id="paint12_linear_128_1116" x1="83.4704" y1="111.795" x2="178.688" y2="16.5786" gradientUnits="userSpaceOnUse">
<stop stop-color="#FC54FF"/>
<stop offset="0.406" stop-color="#FD9BFF"/>
<stop offset="1" stop-color="white"/>
</linearGradient>
<linearGradient id="paint13_linear_128_1116" x1="86.3373" y1="108.952" x2="155.629" y2="39.6606" gradientUnits="userSpaceOnUse">
<stop stop-color="#364AFF"/>
<stop offset="1" stop-color="#FC54FF"/>
</linearGradient>
<linearGradient id="paint14_linear_128_1116" x1="109.268" y1="86.095" x2="151.546" y2="43.8172" gradientUnits="userSpaceOnUse">
<stop stop-color="#364AFF"/>
<stop offset="1" stop-color="#FC54FF"/>
</linearGradient>
<linearGradient id="paint15_linear_128_1116" x1="29.4691" y1="88.2174" x2="69.2603" y2="48.4262" gradientUnits="userSpaceOnUse">
<stop stop-color="#364AFF"/>
<stop offset="1" stop-color="#FC54FF"/>
</linearGradient>
<linearGradient id="paint16_linear_128_1116" x1="43.6536" y1="85.7744" x2="84.7671" y2="44.6609" gradientUnits="userSpaceOnUse">
<stop stop-color="#364AFF"/>
<stop offset="1" stop-color="#FC54FF"/>
</linearGradient>
<linearGradient id="paint17_linear_128_1116" x1="13.9408" y1="91.7262" x2="57.8861" y2="47.7809" gradientUnits="userSpaceOnUse">
<stop stop-color="#364AFF"/>
<stop offset="1" stop-color="#FC54FF"/>
</linearGradient>
<clipPath id="clip0_128_1116">
<rect width="180" height="180" fill="white" transform="translate(0.5 0.00585938)"/>
</clipPath>
</defs>
</svg>
