<svg width="180" height="180" viewBox="0 0 180 180" fill="none" xmlns="http://www.w3.org/2000/svg">
<g id="svgexport-20 (3) 1" clip-path="url(#clip0_128_1163)">
<g id="Group">
<path id="Vector" d="M81.1717 150.013L79.2442 149.668C78.0397 149.232 77.0209 148.397 76.3576 147.301C75.6944 146.205 75.4267 144.915 75.5992 143.646L81.7042 97.5133H58.1242C57.0863 97.5103 56.0695 97.2206 55.1859 96.6762C54.3023 96.1319 53.5863 95.3539 53.1169 94.4283C52.6474 93.5027 52.4429 92.4654 52.5258 91.4308C52.6087 90.3963 52.9758 89.4048 53.5867 88.5657L94.8367 32.3158C95.5842 31.2948 96.6541 30.5557 97.8736 30.2178C99.093 29.88 100.391 29.9632 101.557 30.454C102.723 30.9448 103.69 31.8146 104.301 32.9227C104.912 34.0308 105.132 35.3125 104.924 36.5608L98.5192 75.0133H121.874C122.883 75.0131 123.874 75.2844 124.742 75.7987C125.61 76.313 126.324 77.0513 126.809 77.9363C127.293 78.8213 127.531 79.8205 127.497 80.8289C127.463 81.8374 127.158 82.8181 126.614 83.6682L85.9117 147.418C85.4024 148.213 84.7015 148.868 83.8732 149.321C83.0449 149.775 82.1159 150.013 81.1717 150.013Z" fill="#FFC107"/>
<path id="Vector_2" d="M121.877 75.0137H98.5221L81.7146 97.5137L75.6096 143.646C75.4371 144.915 75.7048 146.206 76.3681 147.301C77.0313 148.397 78.0501 149.233 79.2546 149.669L81.1821 150.014C82.1272 150.013 83.0569 149.774 83.8854 149.319C84.7138 148.865 85.4143 148.208 85.9221 147.411L126.625 83.6612C127.166 82.8107 127.47 81.8306 127.505 80.8228C127.539 79.815 127.302 78.8165 126.82 77.9312C126.332 77.0476 125.616 76.3109 124.747 75.7978C123.877 75.2847 122.887 75.0139 121.877 75.0137Z" fill="#DEA806"/>
<path id="Vector_3" d="M20.295 95.6309H5.625C4.13316 95.6309 2.70242 95.0382 1.64752 93.9833C0.592632 92.9284 0 91.4977 0 90.0059C0 88.514 0.592632 87.0833 1.64752 86.0284C2.70242 84.9735 4.13316 84.3809 5.625 84.3809H20.295C21.7868 84.3809 23.2176 84.9735 24.2725 86.0284C25.3274 87.0833 25.92 88.514 25.92 90.0059C25.92 91.4977 25.3274 92.9284 24.2725 93.9833C23.2176 95.0382 21.7868 95.6309 20.295 95.6309Z" fill="#FFD54F"/>
<path id="Vector_4" d="M25.92 90.0059H0C0 93.1109 2.52 95.6309 5.625 95.6309H20.295C21.7868 95.6309 23.2176 95.0382 24.2725 93.9833C25.3274 92.9284 25.92 91.4977 25.92 90.0059Z" fill="#DEB945"/>
<path id="Vector_5" d="M174.377 95.6309H159.707C158.215 95.6309 156.784 95.0382 155.73 93.9833C154.675 92.9284 154.082 91.4977 154.082 90.0059C154.082 88.514 154.675 87.0833 155.73 86.0284C156.784 84.9735 158.215 84.3809 159.707 84.3809H174.377C175.869 84.3809 177.3 84.9735 178.355 86.0284C179.409 87.0833 180.002 88.514 180.002 90.0059C180.002 91.4977 179.409 92.9284 178.355 93.9833C177.3 95.0382 175.869 95.6309 174.377 95.6309Z" fill="#FFD54F"/>
<path id="Vector_6" d="M180.002 90.0059H154.082C154.082 93.1109 156.602 95.6309 159.707 95.6309H174.377C175.869 95.6309 177.3 95.0382 178.355 93.9833C179.409 92.9284 180.002 91.4977 180.002 90.0059Z" fill="#DEB945"/>
<path id="Vector_7" d="M95.625 159.713V174.383C95.625 175.875 95.0324 177.305 93.9775 178.36C92.9226 179.415 91.4918 180.008 90 180.008C88.5082 180.008 87.0774 179.415 86.0225 178.36C84.9676 177.305 84.375 175.875 84.375 174.383V159.713C84.375 158.221 84.9676 156.79 86.0225 155.735C87.0774 154.681 88.5082 154.088 90 154.088C91.4918 154.088 92.9226 154.681 93.9775 155.735C95.0324 156.79 95.625 158.221 95.625 159.713Z" fill="#FFD54F"/>
<path id="Vector_8" d="M90 154.088V180.008C91.4918 180.008 92.9226 179.415 93.9775 178.36C95.0324 177.305 95.625 175.875 95.625 174.383V159.713C95.625 158.221 95.0324 156.79 93.9775 155.735C92.9226 154.681 91.4918 154.088 90 154.088Z" fill="#DEB945"/>
<path id="Vector_9" d="M95.625 5.63086V20.3009C95.625 21.7927 95.0324 23.2234 93.9775 24.2783C92.9226 25.3332 91.4918 25.9259 90 25.9259C88.5082 25.9259 87.0774 25.3332 86.0225 24.2783C84.9676 23.2234 84.375 21.7927 84.375 20.3009V5.63086C84.375 4.13902 84.9676 2.70828 86.0225 1.65338C87.0774 0.598492 88.5082 0.00585938 90 0.00585938C91.4918 0.00585938 92.9226 0.598492 93.9775 1.65338C95.0324 2.70828 95.625 4.13902 95.625 5.63086Z" fill="#FFD54F"/>
<path id="Vector_10" d="M90 0.00585938V25.9259C91.4918 25.9259 92.9226 25.3332 93.9775 24.2783C95.0324 23.2234 95.625 21.7927 95.625 20.3009V5.63086C95.625 4.13902 95.0324 2.70828 93.9775 1.65338C92.9226 0.598492 91.4918 0.00585938 90 0.00585938Z" fill="#DEB945"/>
<path id="Vector_11" d="M36.7354 44.6909L26.3629 34.3184C25.8404 33.7959 25.4259 33.1757 25.1432 32.493C24.8604 31.8103 24.7148 31.0786 24.7148 30.3397C24.7148 29.6008 24.8604 28.8691 25.1432 28.1864C25.4259 27.5037 25.8404 26.8834 26.3629 26.3609C26.8854 25.8384 27.5057 25.424 28.1884 25.1412C28.871 24.8584 29.6027 24.7129 30.3416 24.7129C31.0806 24.7129 31.8123 24.8584 32.4949 25.1412C33.1776 25.424 33.7979 25.8384 34.3204 26.3609L44.6929 36.7334C45.2154 37.2559 45.6299 37.8762 45.9126 38.5589C46.1954 39.2416 46.341 39.9733 46.341 40.7122C46.341 41.4511 46.1954 42.1828 45.9126 42.8655C45.6299 43.5482 45.2154 44.1684 44.6929 44.6909C44.1704 45.2134 43.5501 45.6279 42.8674 45.9107C42.1848 46.1935 41.4531 46.339 40.7141 46.339C39.9752 46.339 39.2435 46.1935 38.5609 45.9107C37.8782 45.6279 37.2579 45.2134 36.7354 44.6909Z" fill="#FFD54F"/>
<path id="Vector_12" d="M44.6936 44.6991L26.3636 26.3691C25.8409 26.8915 25.4263 27.5118 25.1434 28.1945C24.8605 28.8772 24.7148 29.6089 24.7148 30.3479C24.7148 31.0869 24.8605 31.8186 25.1434 32.5013C25.4263 33.184 25.8409 33.8043 26.3636 34.3266L36.7361 44.6991C37.7931 45.7511 39.2236 46.3417 40.7149 46.3417C42.2062 46.3417 43.6367 45.7511 44.6936 44.6991Z" fill="#DEB945"/>
<path id="Vector_13" d="M145.689 153.644L135.316 143.272C134.261 142.216 133.668 140.785 133.668 139.293C133.668 137.8 134.261 136.369 135.316 135.314C136.371 134.259 137.802 133.666 139.295 133.666C140.787 133.666 142.218 134.259 143.274 135.314L153.646 145.687C154.701 146.742 155.294 148.173 155.294 149.665C155.294 151.158 154.701 152.589 153.646 153.644C152.591 154.699 151.16 155.292 149.667 155.292C148.175 155.292 146.744 154.699 145.689 153.644Z" fill="#FFD54F"/>
<path id="Vector_14" d="M153.639 153.644L135.309 135.314C134.786 135.837 134.372 136.457 134.089 137.14C133.806 137.822 133.66 138.554 133.66 139.293C133.66 140.032 133.806 140.764 134.089 141.447C134.372 142.129 134.786 142.75 135.309 143.272L145.681 153.644C146.204 154.167 146.824 154.582 147.507 154.865C148.189 155.148 148.921 155.293 149.66 155.293C150.399 155.293 151.131 155.148 151.814 154.865C152.496 154.582 153.117 154.167 153.639 153.644Z" fill="#DEB945"/>
<path id="Vector_15" d="M44.6929 143.272L34.3204 153.644C33.2652 154.699 31.834 155.292 30.3416 155.292C28.8493 155.292 27.4181 154.699 26.3629 153.644C25.3077 152.589 24.7148 151.158 24.7148 149.665C24.7148 148.173 25.3077 146.742 26.3629 145.687L36.7354 135.314C37.2579 134.792 37.8782 134.377 38.5609 134.094C39.2435 133.812 39.9752 133.666 40.7141 133.666C41.4531 133.666 42.1848 133.812 42.8674 134.094C43.5501 134.377 44.1704 134.792 44.6929 135.314C45.2154 135.837 45.6299 136.457 45.9126 137.14C46.1954 137.822 46.341 138.554 46.341 139.293C46.341 140.032 46.1954 140.763 45.9126 141.446C45.6299 142.129 45.2154 142.749 44.6929 143.272Z" fill="#FFD54F"/>
<path id="Vector_16" d="M44.6933 135.314L26.3633 153.644C26.8857 154.167 27.5059 154.582 28.1886 154.865C28.8713 155.148 29.603 155.293 30.342 155.293C31.081 155.293 31.8128 155.148 32.4955 154.865C33.1781 154.582 33.7984 154.167 34.3208 153.644L44.6933 143.272C45.7453 142.215 46.3359 140.784 46.3359 139.293C46.3359 137.802 45.7453 136.371 44.6933 135.314Z" fill="#DEB945"/>
<path id="Vector_17" d="M153.638 34.3184L143.266 44.6909C142.743 45.2134 142.123 45.6279 141.44 45.9107C140.758 46.1935 140.026 46.339 139.287 46.339C138.548 46.339 137.816 46.1935 137.134 45.9107C136.451 45.6279 135.831 45.2134 135.308 44.6909C134.786 44.1684 134.371 43.5482 134.088 42.8655C133.806 42.1828 133.66 41.4511 133.66 40.7122C133.66 39.9733 133.806 39.2416 134.088 38.5589C134.371 37.8762 134.786 37.2559 135.308 36.7334L145.681 26.3609C146.736 25.3057 148.167 24.7129 149.659 24.7129C151.152 24.7129 152.583 25.3057 153.638 26.3609C154.693 27.4162 155.286 28.8474 155.286 30.3397C155.286 31.832 154.693 33.2632 153.638 34.3184Z" fill="#FFD54F"/>
<path id="Vector_18" d="M153.639 26.3691L135.309 44.6991C135.831 45.2219 136.451 45.6365 137.134 45.9194C137.817 46.2023 138.548 46.3479 139.287 46.3479C140.026 46.3479 140.758 46.2023 141.441 45.9194C142.123 45.6365 142.744 45.2219 143.266 44.6991L153.639 34.3266C154.161 33.8043 154.576 33.184 154.859 32.5013C155.142 31.8186 155.287 31.0869 155.287 30.3479C155.287 29.6089 155.142 28.8772 154.859 28.1945C154.576 27.5118 154.161 26.8915 153.639 26.3691Z" fill="#DEB945"/>
</g>
</g>
<defs>
<clipPath id="clip0_128_1163">
<rect width="180" height="180" fill="white" transform="translate(0 0.00585938)"/>
</clipPath>
</defs>
</svg>
