<svg width="24" height="24" viewBox="0 0 24 24" fill="none" xmlns="http://www.w3.org/2000/svg">
<g clip-path="url(#clip0_163_459)">
<path d="M14 9.29414V12.1941H16.6C16.8 12.1941 16.9 12.3941 16.9 12.5941L16.5 14.4941C16.5 14.5941 16.3 14.6941 16.2 14.6941H14V21.9941H11V14.7941H9.3C9.1 14.7941 9 14.6941 9 14.4941V12.5941C9 12.3941 9.1 12.2941 9.3 12.2941H11V8.99414C11 7.29414 12.3 5.99414 14 5.99414H16.7C16.9 5.99414 17 6.09414 17 6.29414V8.69414C17 8.89414 16.9 8.99414 16.7 8.99414H14.3C14.1 8.99414 14 9.09414 14 9.29414Z" stroke="#F0F1F2" stroke-miterlimit="10" stroke-linecap="round"/>
<path d="M15 21.9941H9C4 21.9941 2 19.9941 2 14.9941V8.99414C2 3.99414 4 1.99414 9 1.99414H15C20 1.99414 22 3.99414 22 8.99414V14.9941C22 19.9941 20 21.9941 15 21.9941Z" stroke="#F0F1F2" stroke-linecap="round" stroke-linejoin="round"/>
</g>
<defs>
<clipPath id="clip0_163_459">
<rect width="24" height="24" fill="white" transform="translate(0 -0.00585938)"/>
</clipPath>
</defs>
</svg>
