<svg width="24" height="24" viewBox="0 0 24 24" fill="none" xmlns="http://www.w3.org/2000/svg">
<g clip-path="url(#clip0_163_461)">
<path d="M6.9 20.5941C8.4 21.4941 10.2 21.9941 12 21.9941C17.5 21.9941 22 17.4941 22 11.9941C22 6.49414 17.5 1.99414 12 1.99414C6.5 1.99414 2 6.49414 2 11.9941C2 13.7941 2.5 15.4941 3.3 16.9941L2.44044 20.3001C2.24572 21.0491 2.93892 21.7259 3.68299 21.5133L6.9 20.5941Z" stroke="#F0F1F2" stroke-miterlimit="10" stroke-linecap="round" stroke-linejoin="round"/>
<path d="M16.5 14.8426C16.5 15.0046 16.4639 15.1711 16.3873 15.3331C16.3107 15.4951 16.2116 15.6481 16.0809 15.7921C15.86 16.0351 15.6167 16.2106 15.3418 16.3231C15.0714 16.4356 14.7784 16.4941 14.4629 16.4941C14.0033 16.4941 13.512 16.3861 12.9937 16.1656C12.4755 15.9451 11.9572 15.6481 11.4434 15.2746C10.9251 14.8966 10.4339 14.4781 9.9652 14.0146C9.501 13.5466 9.08187 13.0561 8.70781 12.5431C8.33826 12.0301 8.04081 11.5171 7.82449 11.0086C7.60816 10.4956 7.5 10.0051 7.5 9.53714C7.5 9.23114 7.55408 8.93864 7.66224 8.66864C7.77041 8.39414 7.94166 8.14214 8.18052 7.91714C8.46895 7.63364 8.78443 7.49414 9.11793 7.49414C9.24412 7.49414 9.37031 7.52114 9.48297 7.57514C9.60015 7.62914 9.70381 7.71014 9.78493 7.82714L10.8305 9.29864C10.9116 9.41114 10.9702 9.51464 11.0108 9.61364C11.0513 9.70814 11.0739 9.80264 11.0739 9.88814C11.0739 9.99614 11.0423 10.1041 10.9792 10.2076C10.9206 10.3111 10.835 10.4191 10.7268 10.5271L10.3843 10.8826C10.3348 10.9321 10.3122 10.9906 10.3122 11.0626C10.3122 11.0986 10.3167 11.1301 10.3257 11.1661C10.3393 11.2021 10.3528 11.2291 10.3618 11.2561C10.4429 11.4046 10.5826 11.5981 10.7809 11.8321C10.9837 12.0661 11.2 12.3046 11.4344 12.5431C11.6778 12.7816 11.9121 13.0021 12.151 13.2046C12.3853 13.4026 12.5791 13.5376 12.7323 13.6186C12.7549 13.6276 12.7819 13.6411 12.8135 13.6546C12.8495 13.6681 12.8856 13.6726 12.9261 13.6726C13.0028 13.6726 13.0613 13.6456 13.1109 13.5961L13.4534 13.2586C13.5661 13.1461 13.6743 13.0606 13.7779 13.0066C13.8816 12.9436 13.9852 12.9121 14.0979 12.9121C14.1835 12.9121 14.2737 12.9301 14.3728 12.9706C14.472 13.0111 14.5756 13.0696 14.6883 13.1461L16.18 14.2036C16.2972 14.2846 16.3783 14.3791 16.4279 14.4916C16.473 14.6041 16.5 14.7166 16.5 14.8426Z" stroke="#F0F1F2" stroke-miterlimit="10"/>
</g>
<defs>
<clipPath id="clip0_163_461">
<rect width="24" height="24" fill="white" transform="translate(0 -0.00585938)"/>
</clipPath>
</defs>
</svg>
