<svg width="102" height="58" viewBox="0 0 102 58" fill="none" xmlns="http://www.w3.org/2000/svg">
<path d="M20.384 33.3605C14.0612 32.8399 11.9257 37.208 11.3389 42.6218C11.1301 44.5661 11.661 46.128 12.9317 47.3076C13.0641 47.4282 13.0435 47.5061 12.8699 47.5414L11.7095 47.7885C11.6555 47.8002 11.6057 47.8271 11.5659 47.8661C11.5261 47.9051 11.4979 47.9547 11.4845 48.0091C11.0756 49.7269 10.6977 51.4624 10.3506 53.2155C10.0594 54.6672 10.4476 55.5981 11.6036 56.3791C12.1272 56.7321 12.9332 56.91 14.0215 56.913C16.0659 56.9159 18.1073 56.91 20.1457 56.8953C24.3241 56.8644 26.8038 57.0454 29.2084 54.0406C29.282 53.9494 29.3364 53.9597 29.3717 54.0715C29.6864 55.1334 30.2732 55.9232 31.1322 56.4409C31.7234 56.7968 32.6632 56.963 33.9516 56.9395C35.5253 56.9071 37.099 56.9145 38.6726 56.9615C39.6375 56.988 40.2375 56.4629 40.4728 55.3864C41.3141 51.5565 42.1362 47.7253 42.9393 43.8925C43.0069 43.5719 43.1025 43.2557 43.2261 42.9439C43.2937 42.7644 43.4231 42.6762 43.6143 42.6792L44.3556 42.6924C44.3884 42.6929 44.4207 42.7007 44.4501 42.7153C44.4795 42.7298 44.5053 42.7508 44.5256 42.7765C44.5458 42.8023 44.5601 42.8323 44.5674 42.8643C44.5746 42.8963 44.5746 42.9295 44.5674 42.9615C44.0262 45.3088 43.5952 47.587 43.2746 49.7961C42.8996 52.4125 44.435 54.8084 46.6102 56.0085C47.5515 56.5262 48.9178 56.8174 50.7092 56.8821C53.7934 56.9924 58.2982 57.3719 60.9985 55.629C61.0544 55.5933 61.122 55.5807 61.1871 55.5939C61.2521 55.6071 61.3095 55.645 61.3471 55.6996C61.9266 56.5144 62.5296 56.9218 63.1561 56.9218C65.5063 56.9218 67.8639 56.9189 70.2289 56.913C70.7142 56.913 71.0643 56.5953 71.279 55.9599C71.2893 55.9271 71.3082 55.8977 71.3339 55.8748C71.3596 55.8518 71.3911 55.8362 71.4252 55.8295C71.4593 55.8228 71.4948 55.8252 71.528 55.8365C71.5612 55.8477 71.591 55.8675 71.6143 55.8938C72.2188 56.5732 72.6821 56.9262 73.6572 56.9262C80.8844 56.9027 88.1617 56.9042 95.4889 56.9306C95.8207 56.931 96.1425 56.8176 96.4003 56.6096C96.6582 56.4016 96.8364 56.1115 96.9052 55.7879L98.1451 50.0079C98.1585 49.9466 98.1567 49.8831 98.1398 49.823C98.1228 49.763 98.0913 49.7082 98.048 49.6637L95.9566 47.5502C95.9187 47.5121 95.8908 47.4651 95.8754 47.4135C95.86 47.3619 95.8576 47.3074 95.8684 47.2546L96.742 42.913C96.7684 42.7836 96.8493 42.7189 96.9846 42.7189C97.9024 42.7321 99.654 43.0101 99.9055 41.7349C100.17 40.3701 100.463 39.0052 100.784 37.6404C101.163 36.0255 101.159 34.8651 99.8085 33.8988C99.2643 33.5105 98.3863 33.3164 97.1744 33.3164C92.7298 33.3223 88.2734 33.334 83.8053 33.3517C83.6053 33.3517 83.47 33.4458 83.3994 33.6341L82.7817 35.324C82.7733 35.3463 82.7595 35.3662 82.7413 35.3817C82.7232 35.3972 82.7015 35.4079 82.6781 35.4127C82.6548 35.4176 82.6306 35.4164 82.6078 35.4094C82.585 35.4024 82.5644 35.3897 82.5478 35.3725C80.4653 33.162 78.6342 33.3517 75.2544 33.3385C72.0864 33.3267 68.9082 33.334 65.7196 33.3605C65.4744 33.3632 65.2392 33.4578 65.0609 33.6254C64.8826 33.7931 64.7744 34.0214 64.7577 34.265L64.6783 35.3284C64.6759 35.3647 64.664 35.3997 64.6438 35.43C64.6236 35.4602 64.5957 35.4847 64.5631 35.5007C64.5305 35.5168 64.4942 35.5241 64.4579 35.5217C64.4215 35.5193 64.3865 35.5074 64.3562 35.4872L61.2985 33.4135" stroke="#898CA1" stroke-width="0.882445"/>
<path d="M61.2988 33.4132C65.9434 32.3719 68.7717 29.6643 69.7835 25.2903C70.816 20.8222 71.7587 16.3394 72.6118 11.8418C72.9118 10.2475 72.8177 8.71945 72.3294 7.25753C71.7381 5.49264 70.0174 4.1425 68.6584 2.81001C67.2818 1.46428 64.7227 1.1466 62.5519 1.1466C58.8588 1.14218 54.001 0.700962 50.9213 1.72019C47.5209 2.84677 45.3516 5.36175 44.4132 9.2651C43.519 12.9772 42.6954 16.7644 41.9424 20.6266C41.9328 20.6759 41.9101 20.7218 41.8766 20.7592C41.8431 20.7967 41.8001 20.8243 41.7521 20.8393C41.7041 20.8542 41.653 20.8559 41.6041 20.844C41.5553 20.8322 41.5105 20.8074 41.4747 20.7722C37.8699 17.2247 32.7032 18.5925 30.4088 22.7797C30.3746 22.8427 30.3231 22.8945 30.2604 22.9291C30.1977 22.9637 30.1264 22.9796 30.055 22.975C29.9835 22.9703 29.9149 22.9453 29.8572 22.9029C29.7994 22.8605 29.7551 22.8024 29.7293 22.7356L28.2071 18.8176C28.1779 18.7442 28.169 18.6641 28.1814 18.5857C28.1938 18.5073 28.2271 18.4335 28.2777 18.3719L38.9994 5.3338C39.1793 5.11415 39.2713 4.83569 39.2574 4.55266C39.2435 4.26963 39.1248 4.0023 38.9244 3.80276L36.3786 1.26573C36.2815 1.16866 36.1638 1.1216 36.0256 1.12454L24.4479 1.15542C24.2567 1.15542 24.0993 1.22896 23.9758 1.37603L22.4227 3.22917C22.3835 3.27599 22.3351 3.31418 22.2805 3.34132C22.2258 3.36847 22.1661 3.38399 22.1052 3.3869C22.0442 3.3898 21.9833 3.38002 21.9263 3.35819C21.8693 3.33636 21.8175 3.30294 21.7741 3.26006L19.7798 1.28338C19.6827 1.18631 19.5665 1.13778 19.4312 1.13778H8.10059C7.88546 1.13804 7.67359 1.19076 7.48345 1.29134C7.29332 1.39191 7.13069 1.5373 7.00973 1.71481C6.88878 1.89232 6.81318 2.09657 6.78952 2.30977C6.76586 2.52296 6.79487 2.73863 6.874 2.93796L11.8201 15.4819C11.9466 15.7967 11.9025 16.0849 11.6877 16.3467C8.26385 20.5001 4.80613 24.7108 1.31459 28.9789C1.14987 29.1819 1.04545 29.5466 1.00132 30.0732C0.992499 30.2173 1.0278 30.3482 1.10722 30.4658C1.87789 31.5924 2.82357 32.5455 3.94428 33.325C4.06202 33.4083 4.20386 33.453 4.3502 33.4529C7.78291 33.4765 11.2171 33.475 14.6528 33.4485C16.5147 33.4353 16.7662 32.3234 17.7943 31.1189C17.8142 31.0947 17.839 31.0751 17.8671 31.0612C17.8952 31.0474 17.926 31.0396 17.9576 31.0383C17.9891 31.0371 18.0207 31.0424 18.0503 31.054C18.0799 31.0656 18.1069 31.0832 18.1296 31.1056L20.3842 33.3603" stroke="#F1C178" stroke-width="0.882445"/>
<path d="M61.2996 33.4133C57.6639 33.2486 53.9885 33.2971 50.2734 33.5589" stroke="#8A5E2A" stroke-width="0.882445"/>
<path d="M50.2722 33.5591C48.7985 33.3384 47.469 32.9134 46.2836 32.2839C45.2467 31.7324 44.4569 30.7926 43.5745 29.9322C43.4421 29.8028 43.3215 29.8131 43.2127 29.9631C42.1743 31.3985 40.7727 32.5089 39.0078 33.2943" stroke="#F1C178" stroke-width="0.882445"/>
<path d="M39.0084 33.2939L35.3418 33.3248" stroke="#8A5E2A" stroke-width="0.882445"/>
<path d="M35.3413 33.3248C34.5427 32.8924 32.9763 32.032 32.791 33.3204" stroke="#F1C178" stroke-width="0.882445"/>
<path d="M32.7919 33.3203L20.3848 33.36" stroke="#8A5E2A" stroke-width="0.882445"/>
<path d="M50.2722 33.5589L48.3529 34.5472C48.2897 34.5797 48.217 34.5891 48.147 34.5738C48.0771 34.5585 48.0142 34.5195 47.9691 34.4634C47.3513 33.6662 46.6822 33.2721 45.9615 33.2809C43.7083 33.3044 41.3904 33.3089 39.0078 33.2941" stroke="#898CA1" stroke-width="0.882445"/>
<path d="M35.3413 33.3247L32.791 33.3203" stroke="#898CA1" stroke-width="0.882445"/>
<path d="M16.8541 25.2462C16.8734 25.2225 16.8986 25.2042 16.927 25.1931C16.9555 25.182 16.9864 25.1785 17.0167 25.183C17.0469 25.1874 17.0755 25.1997 17.0996 25.2185C17.1237 25.2373 17.1425 25.262 17.1542 25.2903L18.9014 29.7687C18.9146 29.8012 18.9371 29.8291 18.9662 29.8488C18.9953 29.8684 19.0296 29.8789 19.0646 29.879L29.4951 29.8614C29.524 29.8613 29.5524 29.8542 29.5779 29.8406C29.6034 29.827 29.6251 29.8073 29.6412 29.7834C29.6573 29.7594 29.6673 29.7319 29.6703 29.7032C29.6733 29.6745 29.6692 29.6455 29.6584 29.6187L24.3681 16.2496C24.3565 16.2205 24.3528 16.1888 24.3574 16.1578C24.3621 16.1268 24.3749 16.0976 24.3946 16.0732L35.3281 2.74823C35.3488 2.72234 35.3619 2.69113 35.3657 2.65819C35.3695 2.62524 35.3639 2.59189 35.3496 2.56195C35.3354 2.53201 35.3129 2.50671 35.2849 2.48893C35.2569 2.47115 35.2245 2.46163 35.1913 2.46144L24.7873 2.46585C24.761 2.466 24.7351 2.47202 24.7114 2.48347C24.6878 2.49492 24.667 2.51151 24.6505 2.53203L21.0016 7.03692C20.9822 7.06161 20.9565 7.08067 20.9272 7.09212C20.898 7.10358 20.8662 7.107 20.8351 7.10206C20.8041 7.09711 20.775 7.08397 20.7507 7.06398C20.7264 7.044 20.708 7.0179 20.6972 6.98838L19.0161 2.57616C19.0034 2.54209 18.9805 2.51279 18.9504 2.49226C18.9204 2.47172 18.8848 2.46096 18.8484 2.46144H8.37382C8.34495 2.4615 8.31654 2.46864 8.29107 2.48223C8.2656 2.49583 8.24386 2.51546 8.22774 2.53942C8.21163 2.56337 8.20164 2.59091 8.19864 2.61962C8.19565 2.64834 8.19974 2.67735 8.21057 2.70411L13.492 16.0467C13.5037 16.0758 13.5074 16.1075 13.5027 16.1385C13.4981 16.1695 13.4852 16.1988 13.4655 16.2232L2.43497 29.6099C2.41288 29.6357 2.39872 29.6673 2.39417 29.701C2.38962 29.7346 2.39488 29.7689 2.40932 29.7996C2.42376 29.8304 2.44677 29.8563 2.47558 29.8743C2.50439 29.8923 2.53778 29.9016 2.57174 29.9011L13.0375 29.8658C13.0638 29.8656 13.0898 29.8596 13.1134 29.8482C13.1371 29.8367 13.1579 29.8201 13.1743 29.7996L16.8541 25.2462Z" stroke="#8A5E2A" stroke-width="0.882445"/>
<path d="M45.587 9.75951C44.5943 14.132 43.328 19.2017 42.7676 23.0933C41.6204 31.0044 49.2889 29.941 54.5659 29.8925C57.6868 29.8631 59.862 29.5925 61.0916 29.0807C63.8507 27.9335 65.6259 25.6023 66.4171 22.0873C67.8614 15.6601 68.7689 11.3641 69.1395 9.19916C69.6572 6.16943 68.81 4.13981 66.598 3.11029C65.6568 2.67201 64.0757 2.45875 61.8549 2.47051C55.1086 2.51022 47.5769 1.00124 45.587 9.75951Z" stroke="#8A5E2A" stroke-width="0.882445"/>
<path d="M39.8619 21.3153C39.0803 20.4381 37.9014 19.9794 36.5845 20.04C35.2677 20.1006 33.9207 20.6757 32.8399 21.6386C31.7591 22.6015 31.0331 23.8735 30.8215 25.1747C30.6099 26.4759 30.9301 27.6997 31.7117 28.5769C32.4933 29.4541 33.6722 29.9128 34.989 29.8522C36.3059 29.7915 37.6529 29.2165 38.7337 28.2536C39.8144 27.2906 40.5405 26.0187 40.7521 24.7175C40.9636 23.4163 40.6434 22.1925 39.8619 21.3153Z" stroke="#8A5E2A" stroke-width="0.882445"/>
<path d="M52.8236 21.7163C52.8163 21.7499 52.8166 21.7846 52.8246 21.818C52.8325 21.8514 52.8479 21.8825 52.8695 21.9092C52.8911 21.9359 52.9184 21.9574 52.9494 21.9721C52.9804 21.9868 53.0143 21.9944 53.0486 21.9943L56.4548 21.981C56.5074 21.9812 56.5584 21.9633 56.5993 21.9304C56.6403 21.8975 56.6687 21.8515 56.6798 21.8001L59.0757 10.5446C59.0822 10.5113 59.0813 10.4771 59.073 10.4442C59.0647 10.4114 59.0492 10.3808 59.0277 10.3547C59.0062 10.3285 58.9792 10.3075 58.9486 10.293C58.9179 10.2785 58.8845 10.271 58.8506 10.271L55.4268 10.3019C55.3742 10.3017 55.3232 10.3196 55.2822 10.3525C55.2413 10.3854 55.2129 10.4314 55.2017 10.4828L52.8236 21.7163Z" stroke="#8A5E2A" stroke-width="0.882445"/>
<path d="M21.1425 47.4972L21.041 48.2031C21.0146 48.3825 20.9116 48.4737 20.7322 48.4767L12.7063 48.5782C12.6033 48.5798 12.504 48.616 12.4246 48.681C12.3452 48.7459 12.2906 48.8357 12.2695 48.9355L11.2062 53.8375C11.1356 54.1581 11.265 54.3199 11.5945 54.3229C14.9948 54.3376 18.4216 54.3199 21.875 54.2699C25.1532 54.2214 27.1167 52.1035 27.9947 49.1032C30.2935 41.223 26.071 41.2759 20.0527 41.4083C19.9856 41.4093 19.9201 41.3894 19.8654 41.3514C19.8107 41.3133 19.7697 41.2591 19.7483 41.1965C19.4791 40.4288 19.96 40.0096 20.7234 40.0052C23.2177 39.9934 25.7239 39.9861 28.2418 39.9831C28.4095 39.9831 28.5124 39.9008 28.5506 39.7361L29.6802 34.5605C29.7214 34.3752 29.6478 34.2811 29.4596 34.2781C24.0031 34.1634 20.3454 34.1693 18.4864 34.2958C14.2109 34.5782 12.799 38.3947 12.3357 42.0789C11.5724 48.2075 17.0833 47.1354 20.9131 47.2236C21.0925 47.2265 21.169 47.3177 21.1425 47.4972Z" stroke="#8A5E2A" stroke-width="0.882445"/>
<path d="M33.1711 39.9786C33.217 39.9783 33.2625 39.9883 33.3041 40.0078C33.3457 40.0273 33.3824 40.0559 33.4116 40.0914C33.4407 40.1269 33.4616 40.1685 33.4727 40.2131C33.4837 40.2577 33.4847 40.3042 33.4755 40.3492L30.5811 53.9389C30.5712 53.9839 30.5715 54.0305 30.582 54.0753C30.5925 54.1201 30.6128 54.1621 30.6416 54.198C30.6704 54.234 30.7068 54.263 30.7482 54.2831C30.7897 54.3031 30.8351 54.3137 30.8811 54.3139H37.4333C37.5042 54.3146 37.5731 54.2908 37.6285 54.2466C37.684 54.2024 37.7225 54.1405 37.7377 54.0712L40.7071 40.2036C40.7225 40.1336 40.7617 40.0711 40.818 40.0269C40.8744 39.9826 40.9444 39.9593 41.016 39.961L44.7752 40.0271C44.8469 40.0288 44.9168 40.0055 44.9732 39.9612C45.0295 39.9169 45.0687 39.8545 45.0841 39.7845L46.196 34.6133C46.2059 34.568 46.2055 34.521 46.1948 34.4758C46.1841 34.4307 46.1633 34.3885 46.1341 34.3525C46.1048 34.3164 46.0678 34.2875 46.0258 34.2677C45.9838 34.2479 45.9379 34.2379 45.8915 34.2383L30.7355 34.2471C30.6654 34.2475 30.5975 34.2717 30.5429 34.3158C30.4884 34.3599 30.4505 34.4213 30.4355 34.4898L29.3236 39.6389C29.3136 39.6846 29.314 39.7319 29.325 39.7774C29.3359 39.8229 29.3571 39.8653 29.3869 39.9015C29.4166 39.9376 29.4542 39.9665 29.4967 39.986C29.5393 40.0054 29.5857 40.015 29.6325 40.0139L33.1711 39.9786Z" stroke="#8A5E2A" stroke-width="0.882445"/>
<path d="M63.4396 39.9257C65.0147 33.3823 58.7538 34.2206 54.8357 34.2339C50.5294 34.2471 47.4188 34.8692 46.3422 39.3388C45.8862 41.2243 45.3038 43.9128 44.5949 47.4044C43.8669 50.9915 43.6948 54.0712 48.2791 54.2345C51.9369 54.3625 57.5492 55.1611 60.0289 52.0416C60.7231 51.1651 61.357 49.434 61.9306 46.8484C62.4424 44.5453 62.888 42.2156 63.4396 39.9257Z" stroke="#8A5E2A" stroke-width="0.882445"/>
<path d="M70.1637 48.6264C70.2003 48.618 70.2382 48.6172 70.2751 48.6238C70.312 48.6305 70.3471 48.6445 70.3785 48.6652C70.4098 48.6858 70.4366 48.7125 70.4573 48.7438C70.4781 48.775 70.4923 48.8101 70.4991 48.847L71.4742 54.0843C71.4865 54.15 71.521 54.2093 71.5718 54.252C71.6225 54.2947 71.6863 54.3181 71.7521 54.3182L78.4234 54.3094C78.6058 54.3094 78.6778 54.2196 78.6396 54.0402L77.4527 48.2381C77.4402 48.1743 77.4485 48.1083 77.4763 48.0495C77.5041 47.9908 77.5499 47.9424 77.6072 47.9116C79.1426 47.1115 80.1795 45.8746 80.7178 44.2009C81.6664 41.258 83.8372 34.3617 78.216 34.2778C74.1627 34.219 70.1196 34.1984 66.0868 34.2161C65.991 34.2172 65.8985 34.251 65.8246 34.312C65.7508 34.3731 65.7001 34.4575 65.6809 34.5514L61.5908 53.9255C61.581 53.9728 61.5818 54.0217 61.5932 54.0687C61.6046 54.1156 61.6263 54.1595 61.6566 54.197C61.687 54.2346 61.7254 54.2649 61.7689 54.2859C61.8125 54.3068 61.8601 54.3179 61.9084 54.3182L68.4738 54.3094C68.6268 54.3094 68.7195 54.2329 68.7518 54.0799L69.8328 48.8603C69.8431 48.8115 69.8673 48.7666 69.9024 48.7307C69.9375 48.6948 69.9822 48.6693 70.0314 48.6573L70.1637 48.6264Z" stroke="#8A5E2A" stroke-width="0.882445"/>
<path d="M88.3896 48.384C88.0454 47.4839 88.6411 47.1485 89.4617 47.1574C90.503 47.1721 91.5693 47.1662 92.6606 47.1397C92.8077 47.1368 92.8959 47.0632 92.9254 46.9191L94.0461 41.6465C94.0527 41.6168 94.0525 41.586 94.0456 41.5563C94.0387 41.5267 94.0252 41.499 94.0062 41.4752C93.9871 41.4515 93.9629 41.4324 93.9355 41.4192C93.908 41.4061 93.8779 41.3993 93.8475 41.3994L90.1765 41.3862C90.0969 41.3864 90.0199 41.3563 89.9604 41.3017C89.9009 41.2471 89.8632 41.1719 89.8544 41.0905C89.7927 40.4405 90.0501 40.1066 90.6266 40.089C92.768 40.0213 94.8991 39.9831 97.0199 39.9743C97.0939 39.973 97.1651 39.947 97.2221 39.9005C97.279 39.854 97.3182 39.7898 97.3332 39.7183L98.4186 34.5781C98.4279 34.5366 98.4277 34.4935 98.418 34.4521C98.4083 34.4107 98.3894 34.372 98.3627 34.3389C98.336 34.3058 98.3021 34.2792 98.2637 34.261C98.2252 34.2428 98.1831 34.2336 98.1406 34.2339L84.4627 34.2207C84.3633 34.2204 84.2669 34.2541 84.1898 34.3159C84.1126 34.3778 84.0594 34.4642 84.0391 34.5604L79.9358 53.9522C79.8828 54.1934 79.9814 54.314 80.2314 54.314L93.9666 54.3052C94.0368 54.3048 94.1047 54.2805 94.1592 54.2364C94.2137 54.1923 94.2516 54.131 94.2667 54.0625L95.3433 48.9222C95.3525 48.8784 95.3518 48.833 95.3412 48.7895C95.3306 48.7459 95.3103 48.7053 95.282 48.6706C95.2536 48.6359 95.2179 48.608 95.1773 48.5889C95.1368 48.5699 95.0924 48.5601 95.0476 48.5604L88.6543 48.5649C88.5249 48.5649 88.4366 48.5046 88.3896 48.384Z" stroke="#8A5E2A" stroke-width="0.882445"/>
<path d="M30.9566 44.8808C30.9302 45.1632 30.9478 45.4426 31.0096 45.7191C31.1096 46.1515 31.2067 46.1515 31.3008 45.7191L31.8876 43.0762C31.8968 43.036 31.8969 42.9943 31.888 42.954C31.879 42.9138 31.8612 42.876 31.8359 42.8435C31.8105 42.811 31.7783 42.7845 31.7414 42.766C31.7046 42.7475 31.6641 42.7374 31.6229 42.7365L29.8492 42.7232C29.658 42.7203 29.6197 42.7953 29.7345 42.9483L30.8419 44.4616C30.93 44.581 30.9708 44.7303 30.9566 44.8808Z" stroke="#898CA1" stroke-width="0.882445"/>
<path d="M51.6186 48.2471C51.6108 48.2856 51.6116 48.3254 51.621 48.3636C51.6305 48.4018 51.6483 48.4374 51.6733 48.4678C51.6982 48.4982 51.7296 48.5227 51.7652 48.5395C51.8007 48.5562 51.8396 48.5649 51.8789 48.5647L54.1601 48.5691C54.2213 48.5694 54.2806 48.5484 54.3281 48.5098C54.3755 48.4712 54.4082 48.4173 54.4204 48.3574L56.1368 40.2918C56.1446 40.2533 56.1438 40.2135 56.1343 40.1753C56.1249 40.1371 56.1071 40.1015 56.0821 40.0711C56.0572 40.0406 56.0258 40.0161 55.9902 39.9994C55.9546 39.9826 55.9158 39.974 55.8764 39.9741H53.6041C53.5436 39.9737 53.4847 39.994 53.4373 40.0318C53.3899 40.0695 53.3569 40.1224 53.3438 40.1815L51.6186 48.2471Z" stroke="#8A5E2A" stroke-width="0.882445"/>
<path d="M71.1777 42.4847C71.1676 42.5271 71.1673 42.5712 71.1769 42.6137C71.1864 42.6562 71.2055 42.696 71.2328 42.7301C71.26 42.7641 71.2946 42.7915 71.334 42.8101C71.3734 42.8287 71.4165 42.8382 71.46 42.8377L73.7191 42.8332C73.7841 42.8328 73.847 42.8102 73.8975 42.7694C73.948 42.7285 73.9831 42.6717 73.9971 42.6082L74.5089 40.3271C74.5181 40.2854 74.5179 40.2421 74.5082 40.2005C74.4985 40.1589 74.4797 40.1199 74.4531 40.0865C74.4264 40.0531 74.3926 40.0261 74.3542 40.0074C74.3158 39.9887 74.2737 39.9788 74.2309 39.9785H71.9851C71.92 39.9778 71.8565 39.9992 71.8052 40.0393C71.7539 40.0794 71.7177 40.1358 71.7027 40.1991L71.1777 42.4847Z" stroke="#8A5E2A" stroke-width="0.882445"/>
<path d="M61.2988 33.4132C57.6631 33.2485 53.9877 33.297 50.2727 33.5588C48.799 33.3382 47.4694 32.9131 46.284 32.2837C45.2471 31.7321 44.4573 30.7923 43.5749 29.932C43.4425 29.8025 43.3219 29.8128 43.2131 29.9629C42.1747 31.3983 40.7731 32.5087 39.0082 33.2941L35.3417 33.325C34.5431 32.8926 32.9767 32.0322 32.7914 33.3205L20.3842 33.3603L18.1296 31.1056C18.1069 31.0832 18.0799 31.0656 18.0503 31.054C18.0207 31.0424 17.9891 31.0371 17.9576 31.0383C17.926 31.0396 17.8952 31.0474 17.8671 31.0612C17.839 31.0751 17.8142 31.0947 17.7943 31.1189C16.7662 32.3234 16.5147 33.4353 14.6528 33.4485C11.2171 33.475 7.78291 33.4765 4.3502 33.4529C4.20386 33.453 4.06202 33.4083 3.94428 33.325C2.82357 32.5455 1.87789 31.5924 1.10722 30.4658C1.0278 30.3482 0.992499 30.2173 1.00132 30.0732C1.04545 29.5466 1.14987 29.1819 1.31459 28.9789C4.80613 24.7108 8.26385 20.5001 11.6877 16.3467C11.9025 16.0849 11.9466 15.7967 11.8201 15.4819L6.874 2.93796C6.79487 2.73863 6.76586 2.52296 6.78952 2.30977C6.81318 2.09657 6.88878 1.89232 7.00973 1.71481C7.13069 1.5373 7.29332 1.39191 7.48345 1.29134C7.67359 1.19076 7.88546 1.13804 8.10059 1.13778H19.4312C19.5665 1.13778 19.6827 1.18631 19.7798 1.28338L21.7741 3.26006C21.8175 3.30294 21.8693 3.33636 21.9263 3.35819C21.9833 3.38002 22.0442 3.3898 22.1052 3.3869C22.1661 3.38399 22.2258 3.36847 22.2805 3.34132C22.3351 3.31418 22.3835 3.27599 22.4227 3.22917L23.9758 1.37603C24.0993 1.22896 24.2567 1.15542 24.4479 1.15542L36.0256 1.12454C36.1638 1.1216 36.2815 1.16866 36.3786 1.26573L38.9244 3.80276C39.1248 4.0023 39.2435 4.26963 39.2574 4.55266C39.2713 4.83569 39.1793 5.11415 38.9994 5.3338L28.2777 18.3719C28.2271 18.4335 28.1938 18.5073 28.1814 18.5857C28.169 18.6641 28.1779 18.7442 28.2071 18.8176L29.7293 22.7356C29.7551 22.8024 29.7994 22.8605 29.8572 22.9029C29.9149 22.9453 29.9835 22.9703 30.055 22.975C30.1264 22.9796 30.1977 22.9637 30.2604 22.9291C30.3231 22.8945 30.3746 22.8427 30.4088 22.7797C32.7032 18.5925 37.8699 17.2247 41.4747 20.7722C41.5105 20.8074 41.5553 20.8322 41.6041 20.844C41.653 20.8559 41.7041 20.8542 41.7521 20.8393C41.8001 20.8243 41.8431 20.7967 41.8766 20.7592C41.9101 20.7218 41.9328 20.6759 41.9424 20.6266C42.6954 16.7644 43.519 12.9772 44.4132 9.2651C45.3516 5.36175 47.5209 2.84677 50.9213 1.72019C54.001 0.700962 58.8588 1.14218 62.5519 1.1466C64.7227 1.1466 67.2818 1.46428 68.6584 2.81001C70.0174 4.1425 71.7381 5.49264 72.3294 7.25753C72.8177 8.71945 72.9118 10.2476 72.6118 11.8418C71.7587 16.3394 70.816 20.8222 69.7835 25.2903C68.7717 29.6643 65.9434 32.3719 61.2988 33.4132ZM16.8545 25.2462C16.8738 25.2225 16.8989 25.2042 16.9274 25.1931C16.9559 25.182 16.9868 25.1785 17.017 25.183C17.0473 25.1874 17.0758 25.1997 17.0999 25.2185C17.124 25.2373 17.1428 25.262 17.1545 25.2903L18.9017 29.7687C18.9149 29.8012 18.9374 29.8291 18.9665 29.8488C18.9956 29.8684 19.0299 29.8789 19.065 29.879L29.4955 29.8614C29.5243 29.8613 29.5528 29.8542 29.5782 29.8406C29.6037 29.827 29.6254 29.8073 29.6416 29.7834C29.6577 29.7594 29.6677 29.7319 29.6707 29.7032C29.6737 29.6745 29.6696 29.6455 29.6587 29.6187L24.3685 16.2496C24.3568 16.2205 24.3531 16.1888 24.3578 16.1578C24.3624 16.1268 24.3752 16.0976 24.3949 16.0732L35.3284 2.74824C35.3492 2.72235 35.3622 2.69114 35.366 2.65819C35.3698 2.62524 35.3643 2.59189 35.35 2.56195C35.3357 2.53202 35.3133 2.50671 35.2853 2.48893C35.2573 2.47116 35.2248 2.46163 35.1917 2.46144L24.7876 2.46585C24.7613 2.466 24.7354 2.47202 24.7118 2.48347C24.6881 2.49492 24.6673 2.51151 24.6509 2.53203L21.0019 7.03692C20.9825 7.06162 20.9568 7.08068 20.9276 7.09213C20.8983 7.10358 20.8665 7.10701 20.8355 7.10206C20.8044 7.09711 20.7753 7.08397 20.751 7.06398C20.7268 7.044 20.7083 7.0179 20.6975 6.98839L19.0164 2.57616C19.0037 2.54209 18.9808 2.51279 18.9508 2.49226C18.9208 2.47172 18.8851 2.46096 18.8488 2.46144H8.37415C8.34528 2.4615 8.31687 2.46864 8.2914 2.48223C8.26593 2.49583 8.24419 2.51547 8.22808 2.53942C8.21196 2.56337 8.20197 2.59091 8.19897 2.61962C8.19598 2.64834 8.20007 2.67735 8.2109 2.70411L13.4923 16.0467C13.504 16.0758 13.5077 16.1075 13.5031 16.1385C13.4984 16.1695 13.4856 16.1988 13.4659 16.2232L2.4353 29.6099C2.41321 29.6357 2.39905 29.6673 2.3945 29.701C2.38995 29.7346 2.39521 29.7689 2.40965 29.7996C2.42409 29.8304 2.4471 29.8563 2.47591 29.8743C2.50472 29.8923 2.53811 29.9016 2.57208 29.9011L13.0379 29.8658C13.0642 29.8656 13.0901 29.8596 13.1138 29.8482C13.1374 29.8367 13.1582 29.8201 13.1747 29.7996L16.8545 25.2462ZM45.5869 9.75926C44.5941 14.1318 43.3278 19.2014 42.7675 23.093C41.6203 31.0041 49.2887 29.9408 54.5658 29.8923C57.6867 29.8628 59.8619 29.5922 61.0914 29.0804C63.8505 27.9332 65.6257 25.6021 66.417 22.087C67.8613 15.6599 68.7687 11.3638 69.1393 9.19891C69.657 6.16918 68.8099 4.13956 66.5979 3.11004C65.6566 2.67176 64.0756 2.4585 61.8547 2.47026C55.1085 2.50997 47.5768 1.00099 45.5869 9.75926ZM39.8624 21.3154C39.0808 20.4382 37.902 19.9794 36.5851 20.0401C35.2682 20.1007 33.9212 20.6757 32.8404 21.6387C31.7597 22.6016 31.0336 23.8736 30.822 25.1747C30.6105 26.4759 30.9307 27.6997 31.7122 28.5769C32.4938 29.4541 33.6727 29.9129 34.9896 29.8522C36.3064 29.7916 37.6534 29.2166 38.7342 28.2536C39.815 27.2907 40.541 26.0187 40.7526 24.7176C40.9642 23.4164 40.644 22.1926 39.8624 21.3154Z" fill="#F29200"/>
<path d="M16.8541 25.2462L13.1743 29.7996C13.1579 29.8201 13.1371 29.8367 13.1134 29.8482C13.0898 29.8596 13.0638 29.8656 13.0375 29.8658L2.57174 29.9011C2.53778 29.9016 2.50439 29.8923 2.47558 29.8743C2.44677 29.8563 2.42376 29.8304 2.40932 29.7996C2.39488 29.7689 2.38962 29.7346 2.39417 29.701C2.39872 29.6673 2.41288 29.6357 2.43497 29.6099L13.4655 16.2232C13.4852 16.1988 13.4981 16.1695 13.5027 16.1385C13.5074 16.1075 13.5037 16.0758 13.492 16.0467L8.21057 2.70411C8.19974 2.67735 8.19565 2.64834 8.19864 2.61962C8.20164 2.59091 8.21163 2.56337 8.22774 2.53942C8.24386 2.51546 8.2656 2.49583 8.29107 2.48223C8.31654 2.46864 8.34495 2.4615 8.37382 2.46144H18.8484C18.8848 2.46096 18.9204 2.47172 18.9504 2.49226C18.9805 2.51279 19.0034 2.54209 19.0161 2.57616L20.6972 6.98838C20.708 7.0179 20.7264 7.044 20.7507 7.06398C20.775 7.08397 20.8041 7.09711 20.8351 7.10206C20.8662 7.107 20.898 7.10358 20.9272 7.09212C20.9565 7.08067 20.9822 7.06161 21.0016 7.03692L24.6505 2.53203C24.667 2.51151 24.6878 2.49492 24.7114 2.48347C24.7351 2.47202 24.761 2.466 24.7873 2.46585L35.1913 2.46144C35.2245 2.46163 35.2569 2.47115 35.2849 2.48893C35.3129 2.50671 35.3354 2.53201 35.3496 2.56195C35.3639 2.59189 35.3695 2.62524 35.3657 2.65819C35.3619 2.69113 35.3488 2.72234 35.3281 2.74823L24.3946 16.0732C24.3749 16.0976 24.3621 16.1268 24.3574 16.1578C24.3528 16.1888 24.3565 16.2205 24.3681 16.2496L29.6584 29.6187C29.6692 29.6455 29.6733 29.6745 29.6703 29.7032C29.6673 29.7319 29.6573 29.7594 29.6412 29.7834C29.6251 29.8073 29.6034 29.827 29.5779 29.8406C29.5524 29.8542 29.524 29.8613 29.4951 29.8614L19.0646 29.879C19.0296 29.8789 18.9953 29.8684 18.9662 29.8488C18.9371 29.8291 18.9146 29.8012 18.9014 29.7687L17.1542 25.2903C17.1425 25.262 17.1237 25.2373 17.0996 25.2185C17.0755 25.1997 17.0469 25.1874 17.0167 25.183C16.9864 25.1785 16.9555 25.182 16.927 25.1931C16.8986 25.2042 16.8734 25.2225 16.8541 25.2462Z" fill="#222953"/>
<path d="M42.7676 23.0928C43.328 19.2012 44.5943 14.1315 45.587 9.75902C47.5769 1.00075 55.1086 2.50973 61.8549 2.47002C64.0757 2.45826 65.6568 2.67152 66.598 3.1098C68.81 4.13932 69.6572 6.16894 69.1395 9.19867C68.7689 11.3636 67.8614 15.6596 66.4171 22.0868C65.6259 25.6019 63.8507 27.933 61.0916 29.0802C59.862 29.592 57.6868 29.8626 54.5659 29.892C49.2889 29.9405 41.6204 31.0039 42.7676 23.0928ZM52.8231 21.7162C52.8158 21.7497 52.8162 21.7844 52.8241 21.8178C52.8321 21.8512 52.8474 21.8824 52.869 21.9091C52.8906 21.9357 52.9179 21.9572 52.9489 21.9719C52.9799 21.9867 53.0138 21.9942 53.0481 21.9941L56.4543 21.9809C56.5069 21.9811 56.5579 21.9632 56.5989 21.9303C56.6398 21.8973 56.6682 21.8514 56.6794 21.8L59.0752 10.5444C59.0817 10.5112 59.0808 10.4769 59.0725 10.4441C59.0642 10.4113 59.0487 10.3807 59.0272 10.3545C59.0057 10.3284 58.9787 10.3073 58.9481 10.2928C58.9175 10.2784 58.884 10.2709 58.8502 10.2708L55.4263 10.3017C55.3737 10.3015 55.3227 10.3194 55.2817 10.3523C55.2408 10.3853 55.2124 10.4313 55.2013 10.4826L52.8231 21.7162Z" fill="#222953"/>
<path d="M52.8236 21.7163L55.2017 10.4828C55.2129 10.4314 55.2413 10.3854 55.2822 10.3525C55.3232 10.3196 55.3742 10.3017 55.4268 10.3019L58.8506 10.271C58.8845 10.271 58.9179 10.2785 58.9486 10.293C58.9792 10.3075 59.0062 10.3285 59.0277 10.3547C59.0492 10.3808 59.0647 10.4114 59.073 10.4442C59.0813 10.4771 59.0822 10.5113 59.0757 10.5446L56.6798 21.8001C56.6687 21.8515 56.6403 21.8975 56.5993 21.9304C56.5584 21.9633 56.5074 21.9812 56.4548 21.981L53.0486 21.9943C53.0143 21.9944 52.9804 21.9868 52.9494 21.9721C52.9184 21.9574 52.8911 21.9359 52.8695 21.9092C52.8479 21.8825 52.8325 21.8514 52.8246 21.818C52.8166 21.7846 52.8163 21.7499 52.8236 21.7163Z" fill="#F29200"/>
<path d="M38.7345 28.2538C40.9851 26.2486 41.4902 23.1422 39.8627 21.3155C38.2352 19.4888 35.0913 19.6335 32.8407 21.6388C30.5901 23.644 30.085 26.7504 31.7125 28.577C33.34 30.4037 36.4839 30.259 38.7345 28.2538Z" fill="#222953"/>
<path d="M32.7911 33.3206L35.3414 33.325L39.008 33.2941C41.3906 33.3089 43.7085 33.3044 45.9617 33.2809C46.6823 33.2721 47.3515 33.6662 47.9692 34.4634C48.0144 34.5195 48.0773 34.5585 48.1472 34.5738C48.2171 34.5891 48.2898 34.5797 48.3531 34.5472L50.2724 33.5589C53.9875 33.2971 57.6629 33.2486 61.2985 33.4133L64.3562 35.487C64.3865 35.5072 64.4215 35.5191 64.4579 35.5215C64.4942 35.5239 64.5305 35.5166 64.5631 35.5006C64.5957 35.4845 64.6236 35.4601 64.6438 35.4298C64.664 35.3995 64.6759 35.3645 64.6783 35.3282L64.7577 34.2648C64.7744 34.0213 64.8826 33.7929 65.0609 33.6252C65.2392 33.4576 65.4744 33.363 65.7196 33.3603C68.9082 33.3339 72.0864 33.3265 75.2544 33.3383C78.6342 33.3515 80.4653 33.1618 82.5478 35.3723C82.5644 35.3895 82.585 35.4022 82.6078 35.4092C82.6306 35.4162 82.6548 35.4174 82.6781 35.4125C82.7015 35.4077 82.7232 35.397 82.7413 35.3815C82.7595 35.366 82.7733 35.3461 82.7817 35.3238L83.3994 33.6339C83.47 33.4456 83.6053 33.3515 83.8053 33.3515C88.2734 33.3339 92.7298 33.3221 97.1744 33.3162C98.3863 33.3162 99.2643 33.5103 99.8085 33.8986C101.159 34.8649 101.163 36.0253 100.784 37.6402C100.463 39.005 100.17 40.3699 99.9055 41.7347C99.654 43.0099 97.9024 42.7319 96.9846 42.7187C96.8493 42.7187 96.7684 42.7834 96.742 42.9128L95.8684 47.2544C95.8576 47.3072 95.86 47.3617 95.8754 47.4133C95.8907 47.4649 95.9187 47.5119 95.9566 47.55L98.048 49.6635C98.0913 49.708 98.1228 49.7628 98.1398 49.8228C98.1567 49.8829 98.1585 49.9464 98.1451 50.0077L96.9052 55.7877C96.8364 56.1113 96.6582 56.4014 96.4003 56.6094C96.1425 56.8175 95.8207 56.9308 95.4889 56.9304C88.1617 56.904 80.8844 56.9025 73.6572 56.926C72.6821 56.926 72.2188 56.573 71.6143 55.8936C71.591 55.8673 71.5612 55.8476 71.528 55.8363C71.4948 55.825 71.4593 55.8226 71.4252 55.8293C71.3911 55.836 71.3596 55.8516 71.3339 55.8746C71.3082 55.8975 71.2893 55.9269 71.279 55.9597C71.0643 56.5951 70.7142 56.9128 70.2289 56.9128C67.8639 56.9187 65.5063 56.9216 63.1561 56.9216C62.5296 56.9216 61.9266 56.5142 61.3471 55.6994C61.3095 55.6448 61.2521 55.6069 61.1871 55.5937C61.122 55.5805 61.0544 55.5931 60.9985 55.6288C58.2982 57.3717 53.7934 56.9922 50.7092 56.8819C48.9178 56.8172 47.5515 56.526 46.6102 56.0083C44.435 54.8082 42.8996 52.4123 43.2746 49.7959C43.5952 47.5868 44.0261 45.3086 44.5674 42.9613C44.5746 42.9293 44.5746 42.8961 44.5674 42.8641C44.5601 42.8321 44.5458 42.8021 44.5256 42.7763C44.5053 42.7506 44.4795 42.7296 44.4501 42.7151C44.4207 42.7005 44.3884 42.6927 44.3556 42.6922L43.6143 42.679C43.4231 42.676 43.2937 42.7642 43.2261 42.9437C43.1025 43.2555 43.0069 43.5717 42.9393 43.8923C42.1362 47.7251 41.3141 51.5564 40.4728 55.3862C40.2375 56.4627 39.6375 56.9878 38.6726 56.9613C37.099 56.9143 35.5253 56.9069 33.9516 56.9393C32.6632 56.9628 31.7234 56.7966 31.1322 56.4407C30.2732 55.923 29.6864 55.1332 29.3717 54.0713C29.3364 53.9595 29.282 53.9493 29.2084 54.0404C26.8038 57.0452 24.3241 56.8643 20.1457 56.8951C18.1073 56.9098 16.0659 56.9157 14.0215 56.9128C12.9332 56.9098 12.1272 56.7319 11.6036 56.3789C10.4476 55.5979 10.0594 54.667 10.3506 53.2153C10.6977 51.4622 11.0756 49.7267 11.4845 48.0089C11.4979 47.9545 11.5261 47.9049 11.5659 47.8659C11.6057 47.827 11.6555 47.8 11.7095 47.7883L12.8699 47.5412C13.0435 47.5059 13.0641 47.428 12.9317 47.3074C11.661 46.1278 11.1301 44.5659 11.3389 42.6216C11.9257 37.2078 14.0612 32.8397 20.384 33.3603L32.7911 33.3206ZM21.1429 47.4971L21.0414 48.2031C21.0149 48.3825 20.912 48.4737 20.7325 48.4766L12.7067 48.5781C12.6037 48.5797 12.5043 48.616 12.425 48.6809C12.3456 48.7458 12.2909 48.8356 12.2699 48.9355L11.2065 53.8375C11.1359 54.1581 11.2654 54.3199 11.5948 54.3228C14.9952 54.3375 18.422 54.3199 21.8753 54.2699C25.1536 54.2213 27.117 52.1035 27.9951 49.1032C30.2938 41.2229 26.0713 41.2759 20.0531 41.4082C19.986 41.4093 19.9204 41.3894 19.8657 41.3513C19.811 41.3133 19.77 41.2591 19.7486 41.1964C19.4795 40.4287 19.9604 40.0095 20.7237 40.0051C23.2181 39.9934 25.7242 39.986 28.2421 39.9831C28.4098 39.9831 28.5128 39.9007 28.551 39.736L29.6805 34.5604C29.7217 34.3751 29.6482 34.281 29.4599 34.2781C24.0035 34.1634 20.3457 34.1692 18.4867 34.2957C14.2113 34.5781 12.7994 38.3947 12.3361 42.0789C11.5728 48.2075 17.0836 47.1353 20.9134 47.2235C21.0929 47.2265 21.1693 47.3177 21.1429 47.4971ZM33.1706 39.9787C33.2166 39.9784 33.262 39.9884 33.3036 40.0079C33.3452 40.0274 33.3819 40.056 33.4111 40.0915C33.4403 40.127 33.4611 40.1686 33.4722 40.2132C33.4833 40.2578 33.4842 40.3043 33.475 40.3493L30.5806 53.939C30.5708 53.9839 30.5711 54.0305 30.5815 54.0754C30.592 54.1202 30.6124 54.1621 30.6411 54.1981C30.6699 54.234 30.7063 54.2631 30.7478 54.2832C30.7892 54.3032 30.8346 54.3137 30.8807 54.314H37.4328C37.5037 54.3146 37.5726 54.2909 37.6281 54.2467C37.6835 54.2025 37.7221 54.1406 37.7373 54.0713L40.7067 40.2037C40.722 40.1337 40.7612 40.0712 40.8176 40.0269C40.8739 39.9827 40.9439 39.9594 41.0155 39.961L44.7748 40.0272C44.8464 40.0289 44.9164 40.0056 44.9727 39.9613C45.0291 39.917 45.0683 39.8545 45.0836 39.7845L46.1955 34.6134C46.2054 34.5681 46.205 34.5211 46.1943 34.4759C46.1836 34.4308 46.1629 34.3886 46.1336 34.3525C46.1044 34.3165 46.0674 34.2875 46.0254 34.2678C45.9834 34.248 45.9375 34.238 45.8911 34.2384L30.7351 34.2472C30.6649 34.2476 30.597 34.2718 30.5425 34.3159C30.4879 34.36 30.4501 34.4213 30.435 34.4899L29.3231 39.6389C29.3131 39.6846 29.3136 39.732 29.3245 39.7775C29.3355 39.823 29.3566 39.8654 29.3864 39.9015C29.4161 39.9377 29.4537 39.9666 29.4963 39.986C29.5388 40.0055 29.5852 40.0151 29.632 40.014L33.1706 39.9787ZM63.4385 39.9257C65.0136 33.3824 58.7527 34.2207 54.8346 34.2339C50.5283 34.2472 47.4177 34.8693 46.3411 39.3389C45.8852 41.2244 45.3028 43.9129 44.5939 47.4044C43.8658 50.9916 43.6938 54.0713 48.2781 54.2346C51.9358 54.3625 57.5482 55.1611 60.0278 52.0417C60.722 51.1651 61.3559 49.4341 61.9295 46.8485C62.4413 44.5453 62.887 42.2157 63.4385 39.9257ZM70.1627 48.6266C70.1993 48.6183 70.2371 48.6174 70.2741 48.6241C70.311 48.6307 70.3461 48.6448 70.3775 48.6654C70.4088 48.686 70.4356 48.7127 70.4563 48.744C70.4771 48.7752 70.4913 48.8104 70.498 48.8472L71.4731 54.0846C71.4855 54.1502 71.52 54.2095 71.5708 54.2522C71.6215 54.2949 71.6853 54.3183 71.7511 54.3184L78.4224 54.3096C78.6048 54.3096 78.6768 54.2199 78.6386 54.0404L77.4517 48.2384C77.4392 48.1746 77.4475 48.1085 77.4753 48.0497C77.5031 47.991 77.5489 47.9427 77.6061 47.9119C79.1416 47.1118 80.1785 45.8749 80.7168 44.2012C81.6654 41.2582 83.8362 34.3619 78.215 34.2781C74.1617 34.2192 70.1186 34.1986 66.0858 34.2163C65.99 34.2174 65.8975 34.2513 65.8236 34.3123C65.7498 34.3733 65.699 34.4578 65.6799 34.5516L61.5898 53.9257C61.58 53.973 61.5808 54.0219 61.5922 54.0689C61.6036 54.1158 61.6253 54.1597 61.6556 54.1973C61.686 54.2348 61.7244 54.2652 61.7679 54.2861C61.8115 54.3071 61.8591 54.3181 61.9074 54.3184L68.4728 54.3096C68.6258 54.3096 68.7184 54.2331 68.7508 54.0801L69.8318 48.8605C69.8421 48.8117 69.8663 48.7668 69.9014 48.7309C69.9365 48.695 69.9812 48.6696 70.0304 48.6575L70.1627 48.6266ZM88.3896 48.384C88.0455 47.4839 88.6411 47.1485 89.4618 47.1574C90.5031 47.1721 91.5694 47.1662 92.6607 47.1397C92.8077 47.1368 92.896 47.0632 92.9254 46.9191L94.0461 41.6465C94.0527 41.6168 94.0526 41.586 94.0457 41.5563C94.0387 41.5267 94.0253 41.499 94.0062 41.4752C93.9871 41.4515 93.963 41.4324 93.9355 41.4192C93.9081 41.4061 93.878 41.3993 93.8475 41.3994L90.1766 41.3862C90.0969 41.3864 90.0199 41.3563 89.9604 41.3018C89.9009 41.2472 89.8632 41.1719 89.8545 41.0906C89.7927 40.4405 90.0501 40.1066 90.6266 40.089C92.768 40.0213 94.8991 39.9831 97.0199 39.9743C97.0939 39.973 97.1652 39.947 97.2221 39.9005C97.279 39.854 97.3182 39.7898 97.3332 39.7183L98.4186 34.5781C98.4279 34.5366 98.4277 34.4935 98.4181 34.4521C98.4084 34.4107 98.3895 34.372 98.3628 34.3389C98.336 34.3058 98.3022 34.2792 98.2637 34.261C98.2252 34.2428 98.1832 34.2336 98.1406 34.2339L84.4627 34.2207C84.3633 34.2204 84.267 34.2541 84.1898 34.3159C84.1127 34.3778 84.0595 34.4642 84.0392 34.5604L79.9358 53.9522C79.8829 54.1934 79.9814 54.314 80.2314 54.314L93.9667 54.3052C94.0368 54.3048 94.1047 54.2806 94.1593 54.2365C94.2138 54.1923 94.2517 54.131 94.2667 54.0625L95.3433 48.9223C95.3525 48.8784 95.3518 48.833 95.3412 48.7895C95.3306 48.7459 95.3104 48.7053 95.282 48.6706C95.2537 48.6359 95.2179 48.608 95.1774 48.589C95.1368 48.5699 95.0925 48.5601 95.0477 48.5604L88.6544 48.5649C88.5249 48.5649 88.4367 48.5046 88.3896 48.384ZM30.9557 44.8807C30.9292 45.163 30.9468 45.4425 31.0086 45.719C31.1086 46.1514 31.2057 46.1514 31.2998 45.719L31.8866 43.0761C31.8958 43.0359 31.8959 42.9941 31.887 42.9539C31.878 42.9136 31.8602 42.8759 31.8349 42.8434C31.8096 42.8108 31.7773 42.7844 31.7405 42.7658C31.7036 42.7473 31.6631 42.7372 31.6219 42.7363L29.8482 42.7231C29.657 42.7201 29.6188 42.7951 29.7335 42.9481L30.8409 44.4615C30.929 44.5809 30.9698 44.7301 30.9557 44.8807Z" fill="#222953"/>
<path d="M20.9131 47.2236C17.0833 47.1354 11.5724 48.2075 12.3357 42.0789C12.799 38.3947 14.2109 34.5782 18.4864 34.2958C20.3454 34.1693 24.0031 34.1634 29.4596 34.2781C29.6478 34.2811 29.7214 34.3752 29.6802 34.5605L28.5506 39.7361C28.5124 39.9008 28.4095 39.9831 28.2418 39.9831C25.7239 39.9861 23.2177 39.9934 20.7234 40.0052C19.96 40.0096 19.4791 40.4288 19.7483 41.1965C19.7697 41.2591 19.8107 41.3133 19.8654 41.3514C19.9201 41.3894 19.9856 41.4093 20.0527 41.4083C26.071 41.2759 30.2935 41.223 27.9947 49.1032C27.1167 52.1035 25.1532 54.2214 21.875 54.2699C18.4216 54.3199 14.9948 54.3376 11.5945 54.3229C11.265 54.3199 11.1356 54.1581 11.2062 53.8375L12.2695 48.9355C12.2906 48.8357 12.3452 48.7459 12.4246 48.681C12.504 48.616 12.6033 48.5798 12.7063 48.5782L20.7322 48.4767C20.9116 48.4737 21.0146 48.3825 21.041 48.2031L21.1425 47.4972C21.169 47.3177 21.0925 47.2265 20.9131 47.2236Z" fill="#F29200"/>
<path d="M33.1711 39.9786L29.6325 40.0139C29.5857 40.015 29.5393 40.0054 29.4967 39.986C29.4542 39.9665 29.4166 39.9376 29.3869 39.9015C29.3571 39.8653 29.3359 39.8229 29.325 39.7774C29.314 39.7319 29.3136 39.6846 29.3236 39.6389L30.4355 34.4898C30.4505 34.4213 30.4884 34.3599 30.5429 34.3158C30.5975 34.2717 30.6654 34.2475 30.7355 34.2471L45.8915 34.2383C45.9379 34.2379 45.9838 34.2479 46.0258 34.2677C46.0678 34.2875 46.1048 34.3164 46.1341 34.3525C46.1633 34.3885 46.1841 34.4307 46.1948 34.4758C46.2055 34.521 46.2059 34.568 46.196 34.6133L45.0841 39.7845C45.0687 39.8545 45.0295 39.9169 44.9732 39.9612C44.9168 40.0055 44.8469 40.0288 44.7752 40.0271L41.016 39.961C40.9444 39.9593 40.8744 39.9826 40.818 40.0269C40.7617 40.0711 40.7225 40.1336 40.7071 40.2036L37.7377 54.0712C37.7225 54.1405 37.684 54.2024 37.6285 54.2466C37.5731 54.2908 37.5042 54.3146 37.4333 54.3139H30.8811C30.8351 54.3137 30.7897 54.3031 30.7482 54.2831C30.7068 54.263 30.6704 54.234 30.6416 54.198C30.6128 54.1621 30.5925 54.1201 30.582 54.0753C30.5715 54.0305 30.5712 53.9839 30.5811 53.9389L33.4755 40.3492C33.4847 40.3042 33.4837 40.2577 33.4727 40.2131C33.4616 40.1685 33.4407 40.1269 33.4116 40.0914C33.3824 40.0559 33.3457 40.0273 33.3041 40.0078C33.2625 39.9883 33.217 39.9783 33.1711 39.9786Z" fill="#F29200"/>
<path d="M54.8357 34.2339C58.7538 34.2206 65.0147 33.3823 63.4396 39.9257C62.888 42.2156 62.4424 44.5453 61.9306 46.8484C61.357 49.434 60.7231 51.1651 60.0289 52.0416C57.5492 55.1611 51.9369 54.3625 48.2791 54.2345C43.6948 54.0712 43.8669 50.9915 44.5949 47.4044C45.3038 43.9128 45.8862 41.2243 46.3422 39.3388C47.4188 34.8692 50.5294 34.2471 54.8357 34.2339ZM51.6192 48.2471C51.6113 48.2857 51.6122 48.3255 51.6216 48.3636C51.6311 48.4018 51.6489 48.4374 51.6738 48.4679C51.6988 48.4983 51.7302 48.5228 51.7657 48.5395C51.8013 48.5563 51.8402 48.5649 51.8795 48.5648L54.1606 48.5692C54.2218 48.5694 54.2812 48.5484 54.3287 48.5098C54.3761 48.4712 54.4087 48.4174 54.421 48.3574L56.1373 40.2919C56.1452 40.2533 56.1444 40.2135 56.1349 40.1753C56.1255 40.1372 56.1076 40.1016 56.0827 40.0711C56.0578 40.0407 56.0264 40.0162 55.9908 39.9994C55.9552 39.9827 55.9163 39.9741 55.877 39.9742H53.6047C53.5441 39.9738 53.4853 39.9941 53.4379 40.0319C53.3905 40.0696 53.3575 40.1224 53.3444 40.1816L51.6192 48.2471Z" fill="#F29200"/>
<path d="M70.1637 48.6264L70.0314 48.6573C69.9822 48.6693 69.9375 48.6948 69.9024 48.7307C69.8673 48.7666 69.8431 48.8115 69.8328 48.8603L68.7518 54.0799C68.7195 54.2329 68.6268 54.3094 68.4738 54.3094L61.9084 54.3182C61.8601 54.3179 61.8125 54.3068 61.7689 54.2859C61.7254 54.2649 61.687 54.2346 61.6566 54.197C61.6263 54.1595 61.6046 54.1156 61.5932 54.0687C61.5818 54.0217 61.581 53.9728 61.5908 53.9255L65.6809 34.5514C65.7001 34.4575 65.7508 34.3731 65.8246 34.312C65.8985 34.251 65.991 34.2172 66.0868 34.2161C70.1196 34.1984 74.1627 34.219 78.216 34.2778C83.8372 34.3617 81.6664 41.258 80.7178 44.2009C80.1795 45.8746 79.1426 47.1115 77.6072 47.9116C77.5499 47.9424 77.5041 47.9908 77.4763 48.0495C77.4485 48.1083 77.4402 48.1743 77.4527 48.2381L78.6396 54.0402C78.6779 54.2196 78.6058 54.3094 78.4234 54.3094L71.7521 54.3182C71.6863 54.3181 71.6225 54.2947 71.5718 54.252C71.521 54.2093 71.4865 54.15 71.4742 54.0843L70.4991 48.847C70.4923 48.8101 70.4781 48.775 70.4573 48.7438C70.4366 48.7125 70.4098 48.6858 70.3785 48.6652C70.3471 48.6445 70.312 48.6305 70.2751 48.6238C70.2382 48.6172 70.2003 48.618 70.1637 48.6264ZM71.1785 42.4846C71.1685 42.527 71.1682 42.5711 71.1778 42.6136C71.1873 42.6561 71.2064 42.6959 71.2336 42.73C71.2609 42.764 71.2955 42.7914 71.3348 42.81C71.3742 42.8286 71.4173 42.8381 71.4609 42.8376L73.72 42.8331C73.7849 42.8327 73.8478 42.8102 73.8983 42.7693C73.9488 42.7284 73.984 42.6716 73.9979 42.6081L74.5098 40.327C74.519 40.2853 74.5187 40.242 74.5091 40.2004C74.4994 40.1588 74.4806 40.1198 74.4539 40.0864C74.4273 40.053 74.3935 40.026 74.3551 40.0073C74.3166 39.9886 74.2745 39.9787 74.2318 39.9784H71.986C71.9208 39.9777 71.8574 39.9991 71.8061 40.0392C71.7548 40.0793 71.7186 40.1357 71.7036 40.199L71.1785 42.4846Z" fill="#F29200"/>
<path d="M88.6543 48.5649L95.0476 48.5604C95.0924 48.5601 95.1368 48.5699 95.1773 48.5889C95.2179 48.608 95.2536 48.6359 95.282 48.6706C95.3103 48.7053 95.3306 48.7459 95.3412 48.7895C95.3518 48.833 95.3525 48.8784 95.3433 48.9222L94.2667 54.0625C94.2516 54.131 94.2137 54.1923 94.1592 54.2364C94.1047 54.2805 94.0368 54.3048 93.9666 54.3052L80.2314 54.314C79.9814 54.314 79.8828 54.1934 79.9358 53.9522L84.0391 34.5604C84.0594 34.4642 84.1126 34.3778 84.1898 34.3159C84.2669 34.2541 84.3633 34.2204 84.4627 34.2207L98.1406 34.2339C98.1831 34.2336 98.2252 34.2428 98.2637 34.261C98.3021 34.2792 98.336 34.3058 98.3627 34.3389C98.3894 34.372 98.4083 34.4107 98.418 34.4521C98.4277 34.4935 98.4279 34.5366 98.4186 34.5781L97.3332 39.7183C97.3182 39.7898 97.279 39.854 97.2221 39.9005C97.1651 39.947 97.0939 39.973 97.0199 39.9743C94.8991 39.9831 92.768 40.0213 90.6266 40.089C90.0501 40.1066 89.7927 40.4405 89.8544 41.0905C89.8632 41.1719 89.9009 41.2471 89.9604 41.3017C90.0199 41.3563 90.0969 41.3864 90.1765 41.3862L93.8475 41.3994C93.8779 41.3993 93.908 41.4061 93.9355 41.4192C93.9629 41.4324 93.9871 41.4515 94.0062 41.4752C94.0252 41.499 94.0387 41.5267 94.0456 41.5563C94.0525 41.586 94.0527 41.6168 94.0461 41.6465L92.9254 46.9191C92.8959 47.0632 92.8077 47.1368 92.6606 47.1397C91.5693 47.1662 90.503 47.1721 89.4618 47.1574C88.6411 47.1485 88.0454 47.4839 88.3896 48.384C88.4366 48.5046 88.5249 48.5649 88.6543 48.5649Z" fill="#F29200"/>
<path d="M51.6186 48.2471L53.3438 40.1815C53.3569 40.1224 53.3899 40.0695 53.4373 40.0318C53.4847 39.994 53.5436 39.9737 53.6041 39.9741H55.8764C55.9158 39.974 55.9546 39.9826 55.9902 39.9994C56.0258 40.0161 56.0572 40.0406 56.0821 40.0711C56.1071 40.1015 56.1249 40.1371 56.1343 40.1753C56.1438 40.2135 56.1446 40.2533 56.1368 40.2918L54.4204 48.3574C54.4082 48.4173 54.3755 48.4712 54.3281 48.5098C54.2806 48.5484 54.2213 48.5694 54.1601 48.5691L51.8789 48.5647C51.8396 48.5649 51.8007 48.5562 51.7652 48.5395C51.7296 48.5227 51.6982 48.4982 51.6733 48.4678C51.6483 48.4374 51.6305 48.4018 51.621 48.3636C51.6116 48.3254 51.6108 48.2856 51.6186 48.2471Z" fill="#222953"/>
<path d="M71.1777 42.4847L71.7027 40.1991C71.7177 40.1358 71.7539 40.0794 71.8052 40.0393C71.8565 39.9992 71.92 39.9778 71.9851 39.9785H74.2309C74.2737 39.9788 74.3158 39.9887 74.3542 40.0074C74.3926 40.0261 74.4264 40.0531 74.4531 40.0865C74.4797 40.1199 74.4985 40.1589 74.5082 40.2005C74.5179 40.2421 74.5181 40.2854 74.5089 40.3271L73.9971 42.6082C73.9831 42.6717 73.948 42.7285 73.8975 42.7694C73.847 42.8102 73.7841 42.8328 73.7191 42.8332L71.46 42.8377C71.4165 42.8382 71.3734 42.8287 71.334 42.8101C71.2946 42.7915 71.26 42.7641 71.2328 42.7301C71.2055 42.696 71.1864 42.6562 71.1769 42.6137C71.1673 42.5712 71.1676 42.5271 71.1777 42.4847Z" fill="#222953"/>
</svg>
